<svg xmlns="http://www.w3.org/2000/svg" xmlns:xlink="http://www.w3.org/1999/xlink" width="384" height="446" viewBox="0 0 384 446">
  <defs>
    <filter id="Rectangle" x="0" y="0" width="384" height="446" filterUnits="userSpaceOnUse">
      <feOffset dx="8" dy="8" input="SourceAlpha"/>
      <feGaussianBlur stdDeviation="17" result="blur"/>
      <feFlood flood-color="#e8e8e8"/>
      <feComposite operator="in" in2="blur"/>
      <feComposite in="SourceGraphic"/>
    </filter>
    <filter id="Oval" x="130" y="253.5" width="108" height="108" filterUnits="userSpaceOnUse">
      <feOffset dy="3" input="SourceAlpha"/>
      <feGaussianBlur stdDeviation="3" result="blur-2"/>
      <feFlood flood-color="#e0ecde"/>
      <feComposite operator="in" in2="blur-2"/>
      <feComposite in="SourceGraphic"/>
    </filter>
  </defs>
  <g id="Component_30_1" data-name="Component 30 – 1" transform="translate(43.5 43.5)">
    <g id="Component_Specialist" data-name="Component/ Specialist">
      <g transform="matrix(1, 0, 0, 1, -43.5, -43.5)" filter="url(#Rectangle)">
        <path id="Rectangle-2" data-name="Rectangle" d="M26,0H255a26,26,0,0,1,26,26V317a26,26,0,0,1-26,26H26A26,26,0,0,1,0,317V26A26,26,0,0,1,26,0Z" transform="translate(43.5 43.5)" fill="#fff" stroke="#ebebeb" stroke-width="1"/>
      </g>
    </g>
    <text id="حاول_مرة_أخرى_يا_بطل" data-name="حاول مرة أخرى
يا بطل" transform="translate(140 89)" fill="red" font-size="47" font-family="Hayah"><tspan x="-94" y="0">حاول مرة أخرى</tspan><tspan y="0"></tspan><tspan x="-43" y="41">يا بطل</tspan></text>
    <g id="Atoms_Selectors_Selected" data-name="Atoms/ Selectors/ Selected" transform="translate(95.5 216)">
      <g transform="matrix(1, 0, 0, 1, -139, -259.5)" filter="url(#Oval)">
        <circle id="Oval-2" data-name="Oval" cx="45" cy="45" r="45" transform="translate(139 259.5)" fill="red"/>
      </g>
      <rect id="Rectangle_3273" data-name="Rectangle 3273" width="10" height="59" rx="4" transform="translate(61.824 24.105) rotate(45)" fill="#fff"/>
      <rect id="Rectangle_3274" data-name="Rectangle 3274" width="10" height="59" rx="4" transform="translate(68.275 66.665) rotate(137)" fill="#fff"/>
    </g>
  </g>
</svg>
