<svg xmlns="http://www.w3.org/2000/svg" xmlns:xlink="http://www.w3.org/1999/xlink" width="1246.196" height="3262.366" viewBox="0 0 1246.196 3262.366">
  <defs>
    <clipPath id="clip-path">
      <rect id="Rectangle_17345" data-name="Rectangle 17345" width="1653.744" height="1246.196" fill="none" opacity="0.41"/>
    </clipPath>
  </defs>
  <g id="Component_24_1" data-name="Component 24 – 1" transform="translate(0 0.5)">
    <g id="Group_8162" data-name="Group 8162" transform="translate(0 3261.866) rotate(-90)">
      <g id="Group_8161" data-name="Group 8161" clip-path="url(#clip-path)">
        <path id="Path_28251" data-name="Path 28251" d="M1070.937,1107.881c-56.194-58.365-118.483-110.375-182.171-160.3-64.128-50.272-129.789-98.586-192.987-150.042-62.276-50.707-122.3-104.653-174.622-165.749C464.01,565.051,414.036,490.114,395.067,403.13,385.008,357,382.173,309.586,381.946,262.485c-.238-49.391,1.725-98.826,5.5-148.069q1.381-18.009,3.107-35.987c.627-6.571,5.168-12.222,12.222-12.222,6.123,0,12.852,5.612,12.221,12.222q-6.972,73.12-8.333,146.623c-.825,46.338-.611,93.156,6.1,139.109,6.529,44.686,19.486,87.689,40.367,127.789C472.7,529.519,497.29,564.4,523.994,597.2c50.346,61.847,108.866,116.469,170.058,167.4,61.842,51.473,126.516,99.386,190.11,148.638,63.5,49.179,126.12,99.8,183.3,156.313q10.511,10.387,20.756,21.039c10.913,11.335-6.348,28.642-17.284,17.284" transform="translate(-68.312 80.238)" fill="#b6d6d0" opacity="0.41"/>
        <path id="Path_28252" data-name="Path 28252" d="M1132.973,1179.3c-46.531-71.227-107.233-131.565-171.281-187.032C896.708,936,827.966,884.252,762.772,828.226,696.878,771.6,634.609,710.047,585.824,637.76,535.09,562.583,499,477.319,479.14,388.876a738.128,738.128,0,0,1-9.953-271.954q2.541-16.764,5.9-33.385c1.3-6.474,8.991-10.2,15.034-8.536,6.742,1.853,9.842,8.541,8.536,15.033-17.511,87.077-17.71,177.681-1.55,264.986,16.276,87.923,48.482,172.687,95.73,248.655C638.249,676.686,698,738.76,762.221,795.417,826.229,851.89,894.41,903.357,959.6,958.423c64.72,54.671,126.564,113.358,176.394,182.227q9.361,12.939,18.085,26.317c8.628,13.208-12.527,25.47-21.106,12.337" transform="translate(-82.457 0.003)" fill="#efcee1" opacity="0.41"/>
        <path id="Path_28253" data-name="Path 28253" d="M1371.465,1118.626c-1.71-40.659-29.754-73.25-58.69-99.1-16.6-14.831-34.474-28.116-52.284-41.437q-31.452-23.526-63.417-46.351-63.348-45.186-128.988-87.031c-42.992-27.3-86.685-53.468-129.866-80.464-81.683-51.068-162.252-105.659-230.28-174.4C644.358,525.592,591.8,448.835,566.3,361.414c-26.592-91.146-24.312-191.118,6.8-280.85,3.936-11.355,8.4-22.5,13.163-33.533,2.616-6.062,11.518-7.428,16.722-4.385,6.264,3.664,7.01,10.637,4.384,16.722-36.769,85.209-44.655,182.784-23.429,273,20.521,87.222,68.991,164.119,130.136,228.674,65.441,69.09,143.8,123.647,223.936,174.212,42.427,26.77,85.466,52.551,127.956,79.218q66.2,41.55,130.058,86.659c40.475,28.555,81.254,57.357,119.583,88.77,31.849,26.1,62.993,57.633,75.268,98.021a123.6,123.6,0,0,1,5.033,30.7c.662,15.729-23.782,15.7-24.443,0" transform="translate(-98.003 82.047)" fill="#e6a67b" opacity="0.41"/>
        <path id="Path_28254" data-name="Path 28254" d="M1544.911,1147.306c-15.367-50.127-30.958-101.043-59.451-145.554s-70.7-78.591-112.415-110.134c-81.99-61.991-171.333-113.29-261-163.177-89.746-49.929-180.394-98.662-265.753-155.953-42.747-28.691-84.149-59.534-123.035-93.3-37.245-32.341-72.378-68.876-96.861-112.039-25.052-44.164-35.982-93.885-25.994-144.111,5.412-27.217,16.26-53.2,28.781-77.858C641.459,121,655.265,97.356,671.54,75.634A317.977,317.977,0,0,1,698,44.389c10.989-11.294,28.266,6,17.284,17.285-18.476,18.986-33.673,40.574-47.133,63.337-13.746,23.247-26.534,47.439-35.461,72.984-8.572,24.527-13.309,49.97-11.447,76,1.6,22.355,8.2,44.475,17.819,64.658,20.866,43.781,54.006,80.461,89.65,112.78,36.967,33.52,76.919,63.741,118.063,91.92,83.657,57.3,172.819,105.854,261.391,154.982,88.876,49.3,177.714,99.364,259.939,159.352,42.2,30.788,85.412,63.352,118.471,104.185,33.855,41.817,54.042,91.714,70.495,142.454,3.931,12.121,7.673,24.3,11.408,36.484,4.62,15.073-18.965,21.518-23.57,6.5" transform="translate(-106.731 56.914)" fill="#f1cb34" opacity="0.41"/>
        <path id="Path_28255" data-name="Path 28255" d="M261.592,525.36a602.907,602.907,0,0,1-30.83,104.224c-14.325,35.717-32.793,69.1-52.325,102.185-19.063,32.289-38.121,64.618-52.582,99.3-14.005,33.588-24.586,68.567-32.78,104-16.585,71.716-23.234,145.2-28.593,218.462q-.994,13.591-1.94,27.182c-.463,6.586-5.286,12.222-12.222,12.222-6.256,0-12.687-5.6-12.222-12.222,5.179-73.7,10.739-147.628,24.684-220.286,14.031-73.1,38.015-142.77,74.963-207.51,18.8-32.946,39.282-64.989,55.842-99.167,15.685-32.373,27.656-66.452,36.673-101.255,18.27-70.516,24-143.621,22.919-216.287-1.168-78.424-9.56-156.863-23.957-233.941q-2.75-14.72-5.8-29.381c-1.338-6.457,1.884-13.206,8.537-15.034,6.055-1.664,13.688,2.043,15.033,8.536a1473.668,1473.668,0,0,1,29.784,239.364c2.96,73.417-.5,147.477-15.184,219.607" transform="translate(-6.81 6.078)" fill="#f4d4cb" opacity="0.41"/>
        <path id="Path_28256" data-name="Path 28256" d="M845.775,345.246C759.346,253.812,669.286,159.21,556.725,99.853,503.271,71.664,443.8,53.656,382.9,58.037c-55.965,4.025-106.617,28.88-143.23,71.4C200.945,174.4,180.149,232.85,169.41,290.457c-1.21,6.493-9.056,10.179-15.033,8.536-6.814-1.872-9.75-8.522-8.537-15.034,10.187-54.643,29.51-109.385,62.751-154.427C243.992,81.564,293.985,48,353.085,37.355,484.872,13.611,607.105,90.868,703.441,172.168c56.886,48.009,108.544,101.762,159.618,155.794,10.8,11.428-6.451,28.744-17.284,17.284" transform="translate(-26.037 870.09)" fill="#b4b6d9" opacity="0.41"/>
        <path id="Path_28257" data-name="Path 28257" d="M702.187,254.33c-6.237,3.648-12.761.921-16.722-4.385C639.935,188.951,583.02,130.981,510.525,103.438,442.789,77.7,362.208,78.739,304.8,127.458c-28.108,23.853-47.96,55.746-53.444,92.47-.976,6.534-9.221,10.134-15.034,8.537-7-1.922-9.515-8.48-8.536-15.034,10.97-73.47,75.281-130.94,146.007-146.307C458.723,48.671,544.626,81.593,610.5,134.5c36.813,29.563,67.907,65.389,96.067,103.113,3.951,5.293.861,13.653-4.385,16.722" transform="translate(-40.706 939.321)" fill="#e47c98" opacity="0.41"/>
        <path id="Path_28258" data-name="Path 28258" d="M604.153,159.721c-21.99-42.5-46.157-88.26-88.431-113.834-19.109-11.561-40.981-18.614-63.478-17.181-19.724,1.258-38.286,10.426-52.7,23.693-17.061,15.7-29,36.148-35.561,58.3-4.458,15.047-28.055,8.641-23.57-6.5,13.372-45.133,47.972-88.241,96.054-97.855,54.471-10.892,106.7,20.326,139.86,61.543,19.626,24.4,34.595,51.783,48.935,79.5,7.219,13.951-13.866,26.327-21.106,12.337" transform="translate(-60.785 1076.91)" fill="#efcee1" opacity="0.41"/>
        <path id="Path_28259" data-name="Path 28259" d="M967.41,446.365c-6.168,3.608-12.843.98-16.722-4.384C878.212,341.76,787.7,255.234,689.659,180.277,639.75,142.119,588.011,104.911,533.273,73.954,479.074,43.3,418.129,19.151,354.743,25.3c-60.3,5.846-115.956,42.721-146.387,94.78-7.935,13.573-29.069,1.284-21.107-12.337C216.572,57.58,266.56,20.069,323.015,6.133,387.789-9.856,454.031,7.3,512.752,35.593c58.941,28.4,113.237,67.149,165.729,105.911,52.048,38.434,102.178,79.548,149.1,124.124,52.877,50.236,101.461,104.9,144.215,164.016,3.871,5.351.921,13.618-4.384,16.721" transform="translate(-33.176 798.169)" fill="#fae285" opacity="0.41"/>
        <path id="Path_28260" data-name="Path 28260" d="M151.014,25.671c-37.167,67.667-51.79,145.987-42.491,222.559.8,6.563-6.188,12.222-12.222,12.222-7.268,0-11.422-5.639-12.221-12.222-9.8-80.684,6.732-163.717,45.829-234.9,7.575-13.791,28.691-1.472,21.106,12.338" transform="translate(-14.545 979.744)" fill="#b6d6d0" opacity="0.41"/>
        <path id="Path_28261" data-name="Path 28261" d="M443.571,584.432c-14.656-8.812-29.672-17.966-46.714-21.176-17.2-3.239-34.394,3.2-49.614,10.69A237.025,237.025,0,0,0,268.7,636.457c-4.194,5.1-12.936,4.348-17.283,0-5.048-5.047-4.205-12.168,0-17.283a252.277,252.277,0,0,1,89.206-69.053c19.383-8.855,39.3-14.338,60.689-10.8,19.763,3.272,37.672,13.829,54.592,24,13.467,8.1,1.191,29.24-12.337,21.106" transform="translate(-44.348 164.22)" fill="#c1d5ea" opacity="0.41"/>
        <path id="Path_28262" data-name="Path 28262" d="M383.2,730.135A136.283,136.283,0,0,1,350.991,767.8c-5.14,4.133-12.261,5.022-17.283,0-4.279-4.278-5.172-13.127,0-17.284A117.825,117.825,0,0,0,362.09,717.8c7.918-13.584,29.052-1.293,21.106,12.337" transform="translate(-59.052 -109.615)" fill="#efcee1" opacity="0.41"/>
        <path id="Path_28263" data-name="Path 28263" d="M1151.535,655.867q-114.9-67.478-225.24-142.326-31.569-21.429-62.731-43.447c-5.383-3.8-7.919-10.677-4.384-16.722,3.115-5.325,11.3-8.211,16.723-4.384Q984.745,525.85,1098.428,595.52q32.537,19.928,65.443,39.241c13.556,7.96,1.271,29.1-12.336,21.106" transform="translate(-153.382 221.309)" fill="#c1d5ea" opacity="0.41"/>
        <path id="Path_28264" data-name="Path 28264" d="M1655.884,247.865c-6.887,1.893-12.666-2.348-15.034-8.536-25.56-66.795-82.744-114.544-131.364-164.36-14.462-14.818-28.512-30.042-41.459-46.211-4.121-5.148-5.029-12.256,0-17.284,4.272-4.271,13.136-5.18,17.284,0,46.621,58.226,107.7,103.664,149.923,165.6a270.2,270.2,0,0,1,29.186,55.757c2.36,6.167-2.61,13.406-8.536,15.034" transform="translate(-261.958 991.367)" fill="#f4d4cb" opacity="0.41"/>
        <path id="Path_28265" data-name="Path 28265" d="M1373.852,398.718a390.521,390.521,0,0,0-53.954-40.056c-13.358-8.253-1.1-29.406,12.337-21.106a427.842,427.842,0,0,1,58.9,43.877c11.793,10.458-5.546,27.694-17.284,17.285" transform="translate(-235.048 568.628)" fill="#f2adad" opacity="0.41"/>
        <path id="Path_28266" data-name="Path 28266" d="M1459.529,265.7c-4.328,4.327-13.061,5.114-17.284,0A1177.084,1177.084,0,0,0,1243.821,75.282q-31.13-23.47-63.758-44.849c-13.1-8.6-.865-29.77,12.337-21.106a1203.732,1203.732,0,0,1,214.854,179.828q27.125,28.744,52.275,59.257c4.2,5.086,4.979,12.3,0,17.285" transform="translate(-210.065 970.965)" fill="#fae285" opacity="0.41"/>
        <path id="Path_28267" data-name="Path 28267" d="M196.519,550.514c-6.89,106.43-29.04,215.787-91.9,304.246A364.007,364.007,0,0,1,48.95,917.178c-4.948,4.364-12.412,4.873-17.284,0-4.449-4.449-4.97-12.9,0-17.284,75.068-66.212,113.523-161.93,130.186-258.723a862.627,862.627,0,0,0,10.224-90.656c.427-6.588,5.312-12.222,12.222-12.222,6.285,0,12.65,5.6,12.222,12.222" transform="translate(-5.032 -116.464)" fill="#ef9635" opacity="0.41"/>
        <path id="Path_28268" data-name="Path 28268" d="M186.513,1415.663a965.8,965.8,0,0,0-11.565-135.408q-5.316-33.526-12.94-66.631-3.808-16.541-8.188-32.941-2.115-7.916-4.362-15.8c-.715-2.511-1.445-5.972-2.3-9.1-.046-.032-.1-.056-.142-.089-4.606-3.377-7.449-7.726-6.43-13.568a13.641,13.641,0,0,1,11.916-11.467c13.891-1.6,16.661,14.344,19.554,24.351q8.776,30.36,15.578,61.247a1009.126,1009.126,0,0,1,19.524,126.946q3.239,36.147,3.794,72.457c.258,15.735-24.185,15.738-24.443,0" transform="translate(-25.109 -1109.612)" fill="#f1cb34" opacity="0.41"/>
        <path id="Path_28269" data-name="Path 28269" d="M84.145,1146.455a352.346,352.346,0,0,1-63.511,97.793c-10.693,11.584-27.945-5.735-17.284-17.284,45.038-48.791,71.971-111.1,85.5-175.571,15.376-73.268,12.508-149.012,3.352-222.9-5.576-45-13.7-89.645-21.74-134.254-1.171-6.488,1.767-13.174,8.536-15.033,5.922-1.628,13.856,2.006,15.034,8.537,14.712,81.564,29.563,163.8,30.1,246.943.466,72.417-10.813,145.147-39.986,211.767" transform="translate(0 -559.289)" fill="#c1d5ea" opacity="0.41"/>
        <path id="Path_28270" data-name="Path 28270" d="M1828.516,1255.262c-7.036,0-11.711-5.614-12.221-12.222-6.846-88.661-46.82-170.538-94.177-244.333-49.231-76.715-108.1-146.7-157.433-223.357-46.164-71.732-81.184-149.216-96.622-233.451a635.226,635.226,0,0,1,2.648-240.874c15.971-78.465,47.163-154.385,92.455-220.509q8.3-12.117,17.231-23.783c4-5.239,10.528-8.008,16.722-4.385,5.157,3.017,8.413,11.442,4.384,16.721C1553.4,132.1,1519.24,204.759,1500.127,281.654c-18.854,75.847-23.3,155.833-11.887,233.217a582.946,582.946,0,0,0,28.836,114.442c14.739,40.448,34.728,78.747,57.208,115.4,47.566,77.544,106.149,147.467,156.692,222.982,48.959,73.149,92.053,153.883,105.822,241.818q2.613,16.684,3.941,33.53c.508,6.589-5.981,12.222-12.222,12.222" transform="translate(-260.748 -50.704)" fill="#fae285" opacity="0.41"/>
        <path id="Path_28271" data-name="Path 28271" d="M1214.369,1124.224c-7.035,35.8-16.806,72.989-35.674,104.565-17.169,28.733-42.736,50.059-74.522,60.739-64.444,21.653-132.881-2.106-184.582-42-27.809-21.46-52.014-46.944-74.854-73.53-23.513-27.369-46.281-56.1-60.41-89.589-31.066-73.631-4.3-150.974,27.975-219.13,4.146-8.755,8.417-17.449,12.719-26.127,6.987-14.094,28.077-1.725,21.106,12.336-30.512,61.546-65.405,133.277-46.28,203.553,8.552,31.427,27.212,59.105,47.5,84.15,20.953,25.861,43.305,51.023,68.111,73.268,44,39.459,101.757,69.646,162.525,58.554,28.274-5.16,53.8-18.957,71.314-42.1,20.346-26.879,30.112-60.858,37.643-93.207,19.013-81.669,17.182-166.315,15.53-249.6-.312-15.736,24.132-15.735,24.443,0,1.577,79.488,2.855,159.729-12.549,238.117" transform="translate(-137.822 -735.482)" fill="#b4b6d9" opacity="0.41"/>
        <path id="Path_28272" data-name="Path 28272" d="M1190.582,1325.867c-.753,19.3-2.464,46.643-26.944,49.716-12.059,1.514-23.479-4.76-34.041-9.754q-14.7-6.949-28.778-15.108a415.165,415.165,0,0,1-55.767-39.036c-5.1-4.2-4.352-12.933,0-17.284,5.042-5.043,12.173-4.211,17.283,0a375.537,375.537,0,0,0,45.222,31.907q12.07,7.266,24.646,13.646c7.851,3.983,17.016,9.813,25.808,11.267,5.585.922,6.254-4.19,7.064-9.245,1.4-8.757,1.224-18.054,1.346-26.9a435.233,435.233,0,0,0-3.853-63.4c-.873-6.555,6.242-12.222,12.222-12.222,7.329,0,11.346,5.648,12.221,12.222a433.848,433.848,0,0,1,3.57,74.2" transform="translate(-186.285 -1147.381)" fill="#e47c98" opacity="0.41"/>
        <path id="Path_28273" data-name="Path 28273" d="M1179.33,1116.067a276.207,276.207,0,0,1-53.548,87.038c-21.478,23.481-51.744,45.4-85.267,41.9-32.664-3.409-60.584-28.007-80.046-52.931-19.969-25.573-33.731-55.42-42.02-86.724-10.671-40.3-12.787-82.363-12.681-123.867.04-15.726,24.484-15.755,24.443,0-.158,62.006,4.866,126.938,38.872,180.668,14.008,22.134,34.331,44.945,59.174,54.943,27.5,11.067,53.951-5,73.269-24.017,23.7-23.336,42.234-52.547,54.234-83.512,2.383-6.151,8.21-10.411,15.034-8.536,5.875,1.614,10.933,8.845,8.536,15.033" transform="translate(-162.006 -795.428)" fill="#fae285" opacity="0.41"/>
        <path id="Path_28274" data-name="Path 28274" d="M1085.036,1336.928c-1.587,5.775-8.891,11.058-15.034,8.536-15.674-6.431-31.092-13.018-44.269-23.908-13.619-11.258-20.955-27.045-25.878-43.666a402.527,402.527,0,0,1-16.21-114.646,419.63,419.63,0,0,1,5.777-67.022c1.069-6.519,9.155-10.151,15.033-8.535,6.924,1.9,9.609,8.5,8.537,15.033a380.581,380.581,0,0,0,1.672,132.345q3.22,16.855,7.909,33.387c2.508,8.806,5.286,17.537,10.413,25.213,9.739,14.583,27.943,21.841,43.515,28.23,6.1,2.5,10.436,8.121,8.536,15.034" transform="translate(-175.936 -992.744)" fill="#efcee1" opacity="0.41"/>
        <path id="Path_28275" data-name="Path 28275" d="M1122.269,1207.372l-34.32-31.257c-11.655-10.615,5.67-27.861,17.284-17.283l34.319,31.256c11.656,10.615-5.67,27.861-17.284,17.284" transform="translate(-193.901 -913.332)" fill="#c1d5ea" opacity="0.41"/>
        <path id="Path_28276" data-name="Path 28276" d="M766.456,1043.594c-22.561,37.044-43.441,76.457-47.341,120.407a202.454,202.454,0,0,0,25.766,118.656c7.847,13.665-13.265,25.99-21.106,12.337a226.976,226.976,0,0,1-29.637-101.145c-1.917-36.745,6.111-72.356,20.766-105.9,8.6-19.685,19.284-38.362,30.445-56.687,8.169-13.416,29.318-1.146,21.106,12.338" transform="translate(-124.105 -896.783)" fill="#c1d5ea" opacity="0.41"/>
        <path id="Path_28277" data-name="Path 28277" d="M1668.577,811.415c-6.677,2.02-12.916-1.948-15.248-8.148A760.377,760.377,0,0,0,1400.2,465.7c-63.271-47.793-134.611-83.217-206.607-115.762-72.254-32.662-145.81-62.838-215.127-101.572-64.852-36.24-126.908-80.107-175.542-136.787q-9.535-11.11-18.412-22.767c-4.007-5.25-1.27-13.591,3.955-16.828,6.075-3.765,12.812-1.308,16.828,3.955,44.9,58.828,104.764,104.292,168.221,141.44,68.306,39.987,141.363,70.709,213.512,102.9,73.651,32.865,146.89,67.746,212.639,114.916a790.61,790.61,0,0,1,157.244,149.712A779.247,779.247,0,0,1,1666.728,770.9q5.229,12.545,10,25.271c2.324,6.178-2.126,13.426-8.148,15.248" transform="translate(-139.977 376.631)" fill="#c19ec8" opacity="0.41"/>
        <path id="Path_28278" data-name="Path 28278" d="M1609.6,839.056c-49.853,108.215-41.649,231.112-20.495,345.245,6.472,34.921,14.16,69.6,21.885,104.261,1.434,6.434-.466,13.207-7.242,15.7-5.547,2.039-14.254-.758-15.7-7.242-27.179-121.949-54.908-248.142-30.849-373.081a416.219,416.219,0,0,1,30.331-95.4c6.58-14.287,28.665-3.8,22.068,10.519" transform="translate(-276.879 -733.479)" fill="#c1d5ea" opacity="0.41"/>
        <path id="Path_28279" data-name="Path 28279" d="M1934.906,627.279c-60.1-93.19-147.553-165.972-201.482-263.487-14.863-26.873-27.064-55.262-34.82-85.014-3.958-15.18,19.284-22.78,23.256-7.543C1749.6,377.627,1831.172,456.63,1899.213,538.64c20.028,24.141,39.218,48.994,56.228,75.372,8.543,13.247-12,26.495-20.535,13.266" transform="translate(-303.734 397.544)" fill="#b6d6d0" opacity="0.41"/>
        <path id="Path_28280" data-name="Path 28280" d="M1902.352,1231.478c-63.875-81.563-112.964-174.659-145.3-273.037-32.366-98.454-48.5-202.439-46.515-306.088a889.457,889.457,0,0,1,20.428-174.72c3.377-15.3,27.469-11.107,24.065,4.316-21.907,99.266-25.807,201.818-12.679,302.581a906.057,906.057,0,0,0,88.508,288.815,858.061,858.061,0,0,0,91.387,143.919c9.728,12.421-10.213,26.572-19.89,14.215" transform="translate(-305.919 -374.387)" fill="#e47c98" opacity="0.41"/>
        <path id="Path_28281" data-name="Path 28281" d="M1666.634,777.4c-15.728,0-15.755-24.443,0-24.443,15.728,0,15.754,24.443,0,24.443" transform="translate(-295.985 -149.497)" fill="#b4b6d9" opacity="0.41"/>
        <path id="Path_28282" data-name="Path 28282" d="M1657.466,1103.636c-7.074,0-11.665-5.617-12.221-12.222l-13.57-160.939c-.555-6.585,6.015-12.221,12.222-12.221,7.073,0,11.664,5.617,12.221,12.221q6.786,80.47,13.57,160.939c.555,6.585-6.015,12.222-12.222,12.222" transform="translate(-291.838 -611.459)" fill="#ef9635" opacity="0.41"/>
        <path id="Path_28283" data-name="Path 28283" d="M1914.936,1285.738c-5.388,3.151-13.8,1.562-16.722-4.384a1009.659,1009.659,0,0,1-82.925-241.423A1024.6,1024.6,0,0,1,1795.021,785.3a1012.551,1012.551,0,0,1,17.233-144.116c1.249-6.485,9.027-10.186,15.034-8.536,6.783,1.864,9.788,8.53,8.535,15.034a984.084,984.084,0,0,0-15.486,247.284,997.79,997.79,0,0,0,46.51,244.5,967.092,967.092,0,0,0,52.474,129.545c2.914,5.92,1.6,13.224-4.384,16.722" transform="translate(-320.865 -560.305)" fill="#f4d4cb" opacity="0.41"/>
        <path id="Path_28284" data-name="Path 28284" d="M1521.923,1289.244c-66.339-68.576-112.3-154.777-138.278-246.244-28.586-100.642-32.44-207-19.259-310.424,7.847-61.575,21.228-122.227,38.883-181.715,4.465-15.045,28.063-8.639,23.57,6.5-30.324,102.173-48.611,208.479-44.832,315.321,3.337,94.41,24.725,188.77,67.839,273.157,23.574,46.139,53.312,88.858,89.36,126.122,10.942,11.311-6.322,28.616-17.284,17.284" transform="translate(-242.739 -492.042)" fill="#efcee1" opacity="0.41"/>
        <path id="Path_28285" data-name="Path 28285" d="M1362.65,827.611c-4.259,4.259-13.152,5.193-17.284,0a237.66,237.66,0,0,1-50.371-120.646c-.787-6.564,6.18-12.222,12.222-12.222,7.26,0,11.432,5.638,12.221,12.222a207.5,207.5,0,0,0,43.212,103.362c4.106,5.16,5.039,12.246,0,17.284" transform="translate(-231.614 -155.451)" fill="#b6d6d0" opacity="0.41"/>
        <path id="Path_28286" data-name="Path 28286" d="M1219.569,772.486c-15.729,0-15.755-24.443,0-24.443,15.727,0,15.754,24.443,0,24.443" transform="translate(-216.022 -140.54)" fill="#fae285" opacity="0.41"/>
      </g>
    </g>
    <g id="Group_4855" data-name="Group 4855" transform="translate(28.738 227.409)" style="mix-blend-mode: normal;isolation: isolate">
      <path id="Path_27459" data-name="Path 27459" d="M710.1,61.213s36.747,2.734,27.368,12.155c0,0,21.542-9.03,31.424-2.847,0,0-6.841-7.246-26.608-1.165C742.281,69.356,752.672,60.677,710.1,61.213Z" transform="translate(45.32 31.84)" fill="#c4c4c4" opacity="0.49" style="mix-blend-mode: multiply;isolation: isolate"/>
      <path id="Path_27460" data-name="Path 27460" d="M653.674,79s34.5,10.636,39.427,41.387c0,0,41.744-22.12,62.316-23.466,0,0-22.439-2.636-54.7,15.708C700.717,112.626,696.237,91.992,653.674,79Z" transform="translate(0 60.085)" fill="#c4c4c4" opacity="0.49" style="mix-blend-mode: multiply;isolation: isolate"/>
      <path id="Path_27461" data-name="Path 27461" d="M739.446,44.653s16.592-.3,8.634,25.849c0,0,15.52-12.482,31.457-13.209,0,0-10.674-1.489-26.641,7.127C752.9,64.42,759.192,43.384,739.446,44.653Z" transform="translate(92.823 102.227)" fill="#c4c4c4" opacity="0.49" style="mix-blend-mode: multiply;isolation: isolate"/>
    </g>
    <g id="Group_4859" data-name="Group 4859" transform="matrix(1, 0, 0, 1, -153.849, -1496.955)">
      <path id="Path_1" data-name="Path 1" d="M288.786,1484.609l41.035,63.2a15.5,15.5,0,0,1-5.409,21.951l-41.033,23.051A15.5,15.5,0,0,1,260.29,1579.3v-86.249C260.29,1477.617,280.384,1471.668,288.786,1484.609Z" transform="translate(-15.756 84.426)" fill="none" stroke="#d2d2d2" stroke-width="1"/>
      <path id="Path_2" data-name="Path 2" d="M320.993,1535.316l49.719-55.739a10.8,10.8,0,0,0-8.06-17.988H276.743a10.8,10.8,0,0,0-9.057,16.681l36.19,55.737A10.8,10.8,0,0,0,320.993,1535.316Z" transform="translate(45.119 35.366)" fill="none" stroke="#d2d2d2" stroke-width="1"/>
      <path id="Path_3" data-name="Path 3" d="M403.4,1479.326,441.1,1600.063c3.939,12.61-6.781,24.855-18.725,21.386l-111.1-32.268c-11.124-3.229-15.193-17.926-7.522-27.172l73.389-88.468C385.063,1464,399.609,1467.205,403.4,1479.326Z" transform="translate(157.946 54.895)" fill="none" stroke="#d2d2d2" stroke-width="1"/>
      <path id="Path_4" data-name="Path 4" d="M288.908,1531.526l26.1-14.662a18.93,18.93,0,0,1,14.211-1.772l54.286,14.662c21.352,5.768,17.182,37.214-4.935,37.214H298.18C278.69,1566.968,271.915,1541.072,288.908,1531.526Z" transform="translate(1721.666 2472.528) rotate(135)" fill="none" stroke="#d2d2d2" stroke-width="1"/>
      <path id="Path_5" data-name="Path 5" d="M388.708,1549.563,414,1493.269A10.8,10.8,0,0,0,407,1478.43l-48.679-13.357a10.8,10.8,0,0,0-13.095,13.853l23.391,69.649A10.8,10.8,0,0,0,388.708,1549.563Z" transform="translate(259.63 63.569)" fill="none" stroke="#d2d2d2" stroke-width="1"/>
      <path id="Path_6" data-name="Path 6" d="M398.158,1482.687h0c11.777-3.719,9.1-21.1-3.253-21.1h0c-12.59,0-15,17.883-2.857,21.213h0A10.8,10.8,0,0,0,398.158,1482.687Z" transform="translate(569.997 198.789)" fill="none" stroke="#d2d2d2" stroke-width="1"/>
      <path id="Path_7" data-name="Path 7" d="M472.271,1485.881l157.362,141.9c16.232,14.638,5.879,41.587-15.983,41.587H392.544a23.865,23.865,0,0,1-21.77-33.642l63.747-141.9A23.863,23.863,0,0,1,472.271,1485.881Z" transform="translate(287.204 18.58)" fill="none" stroke="#d2d2d2" stroke-width="1"/>
      <path id="Path_8" data-name="Path 8" d="M459.9,1471.15l19.667,68c3.019,10.441-9.535,18.3-17.606,11.022l-60.952-54.963a10.8,10.8,0,0,1,3.979-18.319l41.287-13.04A10.8,10.8,0,0,1,459.9,1471.15Z" transform="translate(469.67 75.954)" fill="none" stroke="#d2d2d2" stroke-width="1"/>
      <path id="Path_9" data-name="Path 9" d="M450.739,1464.579l55.764,15.084c6.995,1.892,10.339,10.514,6.681,17.223L478.5,1560.5c-4.806,8.816-17.049,7.151-19.681-2.675l-21.081-78.7C435.426,1470.489,442.659,1462.393,450.739,1464.579Z" transform="translate(543.662 58.643)" fill="none" stroke="#d2d2d2" stroke-width="1"/>
      <path id="Path_10" data-name="Path 10" d="M495.842,1483.016l.526-.127c12.437-2.994,10.264-21.3-2.527-21.3H492.81c-12.731,0-14.975,18.181-2.625,21.274l.505.127A10.811,10.811,0,0,0,495.842,1483.016Z" transform="translate(581.595 178.565)" fill="none" stroke="#d2d2d2" stroke-width="1"/>
      <path id="Path_11" data-name="Path 11" d="M498.507,1498.695,558.189,1564c6.779,7.418,18.493,2.245,18.493-8.169V1475.04c0-7.531-6.535-13.081-13.327-11.318l-59.682,15.487C495.505,1481.329,492.612,1492.244,498.507,1498.695Z" transform="translate(740.265 59.467)" fill="none" stroke="#d2d2d2" stroke-width="1"/>
      <path id="Path_12" data-name="Path 12" d="M476.078,1607.5H627a16.039,16.039,0,0,0,11.429-27.294l-94.473-95.913a16.041,16.041,0,0,0-25.251,3.12l-56.451,95.912A16.038,16.038,0,0,0,476.078,1607.5Z" transform="translate(568.865 3157.953) rotate(-139)" fill="none" stroke="#d2d2d2" stroke-width="1"/>
    </g>
  </g>
</svg>
