<svg xmlns="http://www.w3.org/2000/svg" xmlns:xlink="http://www.w3.org/1999/xlink" width="384" height="446" viewBox="0 0 384 446">
  <defs>
    <filter id="Rectangle" x="0" y="0" width="384" height="446" filterUnits="userSpaceOnUse">
      <feOffset dx="8" dy="8" input="SourceAlpha"/>
      <feGaussianBlur stdDeviation="17" result="blur"/>
      <feFlood flood-color="#e8e8e8"/>
      <feComposite operator="in" in2="blur"/>
      <feComposite in="SourceGraphic"/>
    </filter>
    <filter id="Oval" x="130" y="253.5" width="108" height="108" filterUnits="userSpaceOnUse">
      <feOffset dy="3" input="SourceAlpha"/>
      <feGaussianBlur stdDeviation="3" result="blur-2"/>
      <feFlood flood-color="#e0ecde"/>
      <feComposite operator="in" in2="blur-2"/>
      <feComposite in="SourceGraphic"/>
    </filter>
  </defs>
  <g id="Component_29_1" data-name="Component 29 – 1" transform="translate(43.5 43.5)">
    <g id="Component_Specialist" data-name="Component/ Specialist">
      <g transform="matrix(1, 0, 0, 1, -43.5, -43.5)" filter="url(#Rectangle)">
        <path id="Rectangle-2" data-name="Rectangle" d="M26,0H255a26,26,0,0,1,26,26V317a26,26,0,0,1-26,26H26A26,26,0,0,1,0,317V26A26,26,0,0,1,26,0Z" transform="translate(43.5 43.5)" fill="#fff" stroke="#ebebeb" stroke-width="1"/>
      </g>
    </g>
    <text id="أحسنت_يا_بطل_تركيب_صحيح_للجملة" data-name="أحسنت يا بطل 
تركيب صحيح 
للجملة" transform="translate(140 89)" fill="#56c596" font-size="47" font-family="Hayah"><tspan x="-100" y="0">أحسنت يا بطل</tspan><tspan y="0"> </tspan><tspan x="-88" y="41">تركيب صحيح</tspan><tspan y="41"> </tspan><tspan x="-47" y="82">للجملة</tspan></text>
    <g id="Atoms_Selectors_Selected" data-name="Atoms/ Selectors/ Selected" transform="translate(95.5 216)">
      <g transform="matrix(1, 0, 0, 1, -139, -259.5)" filter="url(#Oval)">
        <circle id="Oval-2" data-name="Oval" cx="45" cy="45" r="45" transform="translate(139 259.5)" fill="#56c596"/>
      </g>
      <path id="Tick_Right" data-name="Tick Right" d="M31.851.969a3.309,3.309,0,0,1,4.679,4.679L16.678,25.5A3.309,3.309,0,0,1,12,25.5L.969,14.472A3.309,3.309,0,0,1,5.649,9.793l8.69,8.69Z" transform="translate(26.25 31.875)" fill="#fff"/>
    </g>
  </g>
</svg>
