<svg id="Component_23_1" data-name="Component 23 – 1" xmlns="http://www.w3.org/2000/svg" xmlns:xlink="http://www.w3.org/1999/xlink" width="1080" height="1741" viewBox="0 0 1080 1741">
  <defs>
    <clipPath id="clip-path">
      <rect id="Rectangle_17326" data-name="Rectangle 17326" width="1080" height="1741" fill="#fff" stroke="#707070" stroke-width="1"/>
    </clipPath>
    <radialGradient id="radial-gradient" cx="0.487" cy="0.517" r="0.686" gradientUnits="objectBoundingBox">
      <stop offset="0" stop-color="#a71d35"/>
      <stop offset="1" stop-color="#201a56"/>
      <stop offset="1" stop-color="#a71d35"/>
    </radialGradient>
    <linearGradient id="linear-gradient" x1="0.962" y1="1.076" x2="0.024" y2="-0.094" gradientUnits="objectBoundingBox">
      <stop offset="0.02" stop-color="#45108a"/>
      <stop offset="0.293" stop-color="#3d065f"/>
      <stop offset="1" stop-color="#12054e"/>
      <stop offset="1" stop-color="#10054d"/>
    </linearGradient>
    <radialGradient id="radial-gradient-2" cx="0.5" cy="0.5" r="0.5" gradientUnits="objectBoundingBox">
      <stop offset="0.101" stop-color="#fff"/>
      <stop offset="0.333" stop-color="#f8f8f8"/>
      <stop offset="0.648" stop-color="#e7e7e7"/>
      <stop offset="1" stop-color="#ccc"/>
    </radialGradient>
  </defs>
  <g id="Mask_Group_2" data-name="Mask Group 2" clip-path="url(#clip-path)">
    <g id="Component_22_1" data-name="Component 22 – 1" transform="translate(-330.309)">
      <rect id="Rectangle_249" data-name="Rectangle 249" width="1080" height="1724" transform="translate(330.309)" fill="url(#radial-gradient)"/>
      <rect id="Rectangle_3263" data-name="Rectangle 3263" width="1080" height="1724" transform="translate(330.309)" fill="url(#linear-gradient)" style="mix-blend-mode: lighten;isolation: isolate"/>
      <g id="Group_4852" data-name="Group 4852" transform="translate(-389.742 -138.643)" opacity="0.66">
        <path id="Path_27038" data-name="Path 27038" d="M1086.69,312.348a18.9,18.9,0,0,0-8.962,2.249,27.043,27.043,0,0,0-39.564-20.871,41.637,41.637,0,0,0-59.2-29.42,49.859,49.859,0,0,0-93.829.639,41.625,41.625,0,0,0-61.076,33.525A26.1,26.1,0,1,0,838.833,347.3a41.606,41.606,0,0,0,57.135,12.31,49.808,49.808,0,0,0,75.441.044,41.605,41.605,0,0,0,55.3-3.122,27.027,27.027,0,0,0,46.92-11.434,18.983,18.983,0,1,0,13.062-32.75Z" fill="#a71d35" style="mix-blend-mode: luminosity;isolation: isolate"/>
        <path id="Path_27039" data-name="Path 27039" d="M1086.69,291.162a18.912,18.912,0,0,1-13.062-5.229,27.025,27.025,0,0,1-46.92,11.434,41.608,41.608,0,0,1-55.3,3.124,49.812,49.812,0,0,1-75.441-.044,41.611,41.611,0,0,1-57.135-12.31,26.072,26.072,0,0,1-36.4-11.973,26.089,26.089,0,0,0,36.4,33.661,41.606,41.606,0,0,0,57.135,12.31,49.808,49.808,0,0,0,75.441.044,41.611,41.611,0,0,0,55.3-3.122,27.027,27.027,0,0,0,46.92-11.434,18.975,18.975,0,0,0,28.639-24.606A18.957,18.957,0,0,1,1086.69,291.162Z" transform="translate(0 37.474)" fill="#201a56" style="mix-blend-mode: luminosity;isolation: isolate"/>
      </g>
      <g id="Group_4854" data-name="Group 4854" transform="translate(271.273 -155.374)" opacity="0.66">
        <path id="Path_27038-2" data-name="Path 27038" d="M1046.7,301.087a16.261,16.261,0,0,0-7.711,1.935,23.269,23.269,0,0,0-34.044-17.959A35.827,35.827,0,0,0,954,259.749a42.9,42.9,0,0,0-80.738.55,35.817,35.817,0,0,0-52.554,28.848,22.458,22.458,0,1,0,12.708,42.015,35.8,35.8,0,0,0,49.163,10.593,42.859,42.859,0,0,0,64.915.038,35.8,35.8,0,0,0,47.584-2.686,23.256,23.256,0,0,0,40.374-9.838,16.334,16.334,0,1,0,11.239-28.18Z" fill="#a71d35" style="mix-blend-mode: luminosity;isolation: isolate"/>
        <path id="Path_27039-2" data-name="Path 27039" d="M1046.7,289.069a16.274,16.274,0,0,1-11.239-4.5,23.255,23.255,0,0,1-40.374,9.838A35.8,35.8,0,0,1,947.5,297.1a42.862,42.862,0,0,1-64.915-.038,35.805,35.805,0,0,1-49.163-10.593,22.434,22.434,0,0,1-31.32-10.3,22.448,22.448,0,0,0,31.32,28.965,35.8,35.8,0,0,0,49.163,10.593,42.859,42.859,0,0,0,64.915.038,35.8,35.8,0,0,0,47.584-2.686,23.256,23.256,0,0,0,40.374-9.838,16.327,16.327,0,0,0,24.643-21.172A16.312,16.312,0,0,1,1046.7,289.069Z" transform="translate(0 26.034)" fill="#201a56" style="mix-blend-mode: luminosity;isolation: isolate"/>
      </g>
      <g id="Group_4853" data-name="Group 4853" transform="translate(292.087 6.626)" opacity="0.66">
        <path id="Path_27038-3" data-name="Path 27038" d="M903.853,260.869a6.843,6.843,0,0,0-3.245.814,9.793,9.793,0,0,0-14.328-7.558,15.078,15.078,0,0,0-21.437-10.654,18.056,18.056,0,0,0-33.979.231,15.074,15.074,0,0,0-22.118,12.141,9.452,9.452,0,1,0,5.348,17.682,15.067,15.067,0,0,0,20.69,4.458,18.037,18.037,0,0,0,27.32.016,15.067,15.067,0,0,0,20.026-1.13,9.787,9.787,0,0,0,16.991-4.14,6.874,6.874,0,1,0,4.73-11.86Z" fill="#a71d35" style="mix-blend-mode: luminosity;isolation: isolate"/>
        <path id="Path_27039-3" data-name="Path 27039" d="M903.853,281.595a6.849,6.849,0,0,1-4.73-1.893,9.787,9.787,0,0,1-16.991,4.14,15.068,15.068,0,0,1-20.026,1.131,18.039,18.039,0,0,1-27.32-.016A15.069,15.069,0,0,1,814.1,280.5a9.442,9.442,0,0,1-13.181-4.336,9.448,9.448,0,0,0,13.181,12.19,15.067,15.067,0,0,0,20.69,4.458,18.037,18.037,0,0,0,27.32.016,15.069,15.069,0,0,0,20.026-1.131,9.787,9.787,0,0,0,16.991-4.14,6.871,6.871,0,0,0,10.371-8.911A6.865,6.865,0,0,1,903.853,281.595Z" transform="translate(0 -14.827)" fill="#201a56" style="mix-blend-mode: luminosity;isolation: isolate"/>
      </g>
      <path id="Path_27040" data-name="Path 27040" d="M421.928,1585.061,958.308,714.753,218.827,1585.061Zm325.089,0L958.308,714.753l-357.9,870.308ZM88,1454.244,958.308,714.753,88,1251.133Zm0-381.591,870.308-357.9L88,926.044ZM1828.617,926.044,958.308,714.753l870.309,357.9Zm-804.04,659.017L958.308,714.753l-66.259,870.308ZM88,781.022l870.308-66.269L88,648.493Zm1740.617,470.112L958.308,714.753l870.309,739.491ZM1697.8,1585.061,958.308,714.753l536.381,870.308Zm-381.592,0-357.9-870.308L1169.6,1585.061ZM1828.617-24.729,958.308,714.753l870.309-536.371ZM1494.689-155.556,958.308,714.753,1697.8-155.556Zm333.928,804.049-870.309,66.26,870.309,66.269ZM1169.6-155.556,958.308,714.753l357.9-870.309Zm659.017,512.418L958.308,714.753l870.309-211.282ZM600.409-155.556l357.9,870.309L747.017-155.556Zm-381.592,0L958.308,714.753,421.928-155.556Zm673.232,0,66.259,870.309,66.269-870.309ZM88,178.381,958.308,714.753,88-24.729Zm0,325.089L958.308,714.753,88,356.862Z" transform="translate(-88 155.556)" opacity="0.11" fill="url(#radial-gradient-2)" style="mix-blend-mode: color-burn;isolation: isolate"/>
      <path id="Path_27037" data-name="Path 27037" d="M1312.524,243.721c156.393-134.163,405.644-144.325,519.49,17.715,103.206,152.013,95.446,389.992-63.536,486.116-180.254,111.5-381.783,98.734-487.865-101.206C1171.942,436.109,1222.541,317.188,1312.524,243.721Z" transform="translate(-689.382 399.732)" fill="rgba(238,238,243,0.28)" opacity="0.42"/>
    </g>
  </g>
  <g id="Group_8106" data-name="Group 8106" transform="translate(-6244.269 -1794.175)" style="mix-blend-mode: luminosity;isolation: isolate">
    <path id="Path_28207" data-name="Path 28207" d="M1215.888,569.444q15.667-19.274,51.4-83.362,9.083-16.294,20.527-26.324,1.565-1.41,1.566-13.789,0-6.582-1.252-9.715-9.875,6.268-11.284,8.305l-41.21,63.774q-52.806,81.8-102.79,81.794-29.931,0-51.4-20.841-20.53-20.055-24.444-50.3-.469-3.76-.627-5.014,0-13.006,8.932-25.228,15.667-21.465,49.358-29.771,9.4-2.352,11.439-2.351,7.05-.154,26.325-1.1,32.747-1.723,57.976-4.7,7.99-.94,10.342-2.507l-.47-1.567h-70.512q-57.505,0-75.368,17.706-14.1,13.949-19.587,27.186t-5.485,32.985q0,36.823,24.132,63.618,25.068,27.737,61.423,27.737Q1178.28,615.983,1215.888,569.444Z" transform="translate(5587.992 1672.288)" fill="#fb82b4"/>
    <path id="Path_28216" data-name="Path 28216" d="M1382.039,312.384a35.3,35.3,0,0,0-3.2,15.733q0,10.885,2.811,30.55l.389,9.513q.089,7.5,0,9.422v3.2l1.126,1.372q2.35-.824,2.167-7.5-1.009-34.3-1.646-40.064,12.711,26.436,13.628,28.631,8.141,19.208,8.143,30.55,0,30.646-22.687,52.5-7.957,7.684-25.246,16.1-14.636,7.133-19.941,7.134l-.367.366-.092.731.459.915a125.473,125.473,0,0,0,29.362-4.391q17.655-4.663,25.7-13.628,7.316-8.141,11.8-26.618A167.209,167.209,0,0,0,1409.3,387.3a76.9,76.9,0,0,0-4.117-25.155,271.581,271.581,0,0,0-14.453-34.211Q1383.134,312.841,1382.039,312.384Z" transform="translate(5521.924 1700.724)" fill="#fb82b4"/>
    <path id="Path_28212" data-name="Path 28212" d="M1279.86,649.722q15.087-1.166,28.358-18.539a90.546,90.546,0,0,0,15.6-31.709,53.4,53.4,0,0,0,1.4-22.544q-2.227-13.949-12.654-16.743a5.1,5.1,0,0,0-6.19,2.6,47.969,47.969,0,0,0-5.5,11.69q-1.684,6.273-.865,9.238,1.15,4.194,7.068,5.777,6.715,1.8,11.429-2.715,2.113,6.251,1.048,10.225-4.475,16.7-22.532,29.664Q1274.5,642.886,1243.2,640.94a18.752,18.752,0,0,0-3.505.006l-.294.4q.434,1.915,6.442,3.526Q1267.484,650.666,1279.86,649.722Z" transform="translate(5544.358 1643.893)" fill="#e0f3b2"/>
    <path id="Path_28213" data-name="Path 28213" d="M1267.243,339.12q-6.745,9.45-7.9,16.014-4.012,22.744,19.674,35.14a93.533,93.533,0,0,0,27.132,9.62q11.136,1.963,14.431.428l.374-.418-.32-.237a30.7,30.7,0,0,1-8.391-.391,127.316,127.316,0,0,1-17.7-4.815,88.119,88.119,0,0,1-15.2-6.365,41.283,41.283,0,0,1-12.374-10.705q-6.162-7.916-4.971-14.657,3.3-18.7,27.414-33.787l11.752-7.358q10.6-6.652,13.9-13.324,2.207-8.072,3.3-13.2.111-.644-.91-1.882a3.511,3.511,0,0,0-1.665-1.351q-2.049-.362-11.04,2.285-11.539,3.4-12.472,5.6l-1.793,4.337a27.594,27.594,0,0,0-1.6,4.614q-.678,3.868.26,5.727a12.943,12.943,0,0,1,1.542,3.958q-7.34,4.931-11.14,7.645Q1273.589,330.206,1267.243,339.12Zm35.54-36.345a53.179,53.179,0,0,1,10.886-1.4,31.553,31.553,0,0,1-8.734,8.736,110.892,110.892,0,0,1-10.89,6.238,6.889,6.889,0,0,0,.377-1.445c.114-.664.224-1.511.325-2.541a50.976,50.976,0,0,0-2.052-5.5Q1295.049,304.495,1302.782,302.776Z" transform="translate(5539.913 1705.452)" fill="#e5e5e5"/>
    <path id="Path_28215" data-name="Path 28215" d="M1303.3,368.005a64.351,64.351,0,0,0-4.564,7.718l5.653,4.623q2.155-1.612,4.679-7.334a5.848,5.848,0,0,0-2.39-2.9Q1306.3,369.863,1303.3,368.005Z" transform="translate(5530.737 1687.955)" fill="#e5e5e5"/>
    <path id="Path_28208" data-name="Path 28208" d="M1211.449,353.263l2.16-4.184q-.488-2.366-6.142-5.513-2.636,4.3-4.943,8.592l5.874,5.2Q1209.774,356.526,1211.449,353.263Z" transform="translate(5548.893 1698.745)" fill="#fff"/>
    <path id="Path_28206" data-name="Path 28206" d="M1204.906,398.725a40.655,40.655,0,0,1-6.477,7.582,66.9,66.9,0,0,1-8.274,5.593,33.722,33.722,0,0,1-4.942,2.422,66.549,66.549,0,0,1-6.722,1.367q-5.634.768-8.275.025l-.4.253.169.308a12.73,12.73,0,0,0,3.213.8,81.853,81.853,0,0,0,10.86,1.033q7.457.3,9.812-.636,6.669-2.584,11.555-10.259a40.255,40.255,0,0,0,5.732-14.764q1.056-5.984,1.159-7.59a13.385,13.385,0,0,0-1.3-7.328q-2.219-4.15-5.254-4.685-3.425-.6-9.534,1.59t-8.158,4.941q-1.347,1.806-2.307,7.248-.84,4.772,2.761,9.443,4.51,5.853,5.131,8.422a26.992,26.992,0,0,1,.088,3.309l.405.488c.5.028.787-.155.856-.545a6.4,6.4,0,0,0,.716-2.287,18.674,18.674,0,0,0-.824-10.027,25.4,25.4,0,0,0-3.643-6.211q-2.11-2.738-1.975-3.5l.289-.877a24.4,24.4,0,0,1,6.61-3.011q4.646-1.5,6.987-1.088a7.7,7.7,0,0,1,4.551,3.216q2.167,2.8,1.739,5.224Q1208.737,393.229,1204.906,398.725Z" transform="translate(5560.333 1686.874)" fill="#e5e5e5"/>
    <path id="Path_28218" data-name="Path 28218" d="M1217.037,356.035q1.475-7.092,0-9.159-7.093-8.861-15.069-9.159-10.638-.294-15.364,27.478-2.66,15.071-5.025,30.139a92.153,92.153,0,0,1-6.2-15.364q-16.256-31.318-31.024-30.73-7.68,0-6.2,16.546.6,3.546,8.862,7.98t10.047,4.134a10.883,10.883,0,0,0,2.067-2.658q11.226,10.05,16.252,27.481,4.134,13.592,7.977,13.885,2.659.3,6.358-31.467t12.258-31.763q4.133,0,7.834,4.874c2.459,3.252,3.585,4.877,3.4,4.877Q1215.856,363.127,1217.037,356.035Z" transform="translate(5511.403 1695.078)" fill="#e0ffb5"/>
    <path id="Path_28209" data-name="Path 28209" d="M1303,496.2q1.185-3.215.59-4.415-17.4,5.072-55.317,17.882-40.294,13.559-55.615,19.965a7,7,0,0,0-3.2,3.932,6.52,6.52,0,0,0-.371,5.119q36.285-14.724,111.7-38.817Q1301.811,499.418,1303,496.2Z" transform="translate(5494.889 1663.582)" fill="#f9f9f9"/>
    <path id="Path_28210" data-name="Path 28210" d="M1186.6,548.978q40.3-15.02,110.8-37.331c.791-.3,1.637-1.361,2.526-3.2s1.189-3.3.9-4.389q-71.983,22.183-109.606,36.771Q1186.15,542.757,1186.6,548.978Z" transform="translate(5494.399 1666.374)" fill="#f9f9f9"/>
    <path id="Path_28217" data-name="Path 28217" d="M1344.941,351.935q-.471,0-1.494,4.153t-.746,4.529q14.651,13.911,14.655,27.446a42.97,42.97,0,0,1-1.12,8.682q-.376,1.679.281,1.774,1.024.094,2.146-2.895a37.316,37.316,0,0,0,1.962-11.855q.277-11.389-7-22.5Q1347.553,351.936,1344.941,351.935Z" transform="translate(5520.659 1691.644)" fill="#e0f3b2"/>
    <path id="Path_28214" data-name="Path 28214" d="M1285.081,173.757a83.987,83.987,0,0,0,7.031,34.622q9.077,20.29,25.543,20.292,13.794,0,24.209-13.528,9.7-12.55,9.7-26.79,0-17.353-8.1-18.512l-10.858-1.6q-12.638-1.868-12.637-9.968,0-7.209,4.806-14.862,5.339-8.544,12.282-8.545a5.63,5.63,0,0,1,4.272,1.424q1.155,1.693,2.4,3.292l.268.179q1.689-.443,3.115-5.341a26.048,26.048,0,0,0,1.246-6.941L1348,125.43a17.132,17.132,0,0,0-12.016-4.894q-6.5,0-13.438,12.9-5.875,10.945-6.854,19.044-.088.715-.088,7.032,0,13.884,2.937,18.512,3.737,5.875,16.376,7.565,10.322,1.335,10.324,5.34,0,7.657-9.968,14.686-9.257,6.586-17.355,6.586-14.063,0-21.626-17.355a73.643,73.643,0,0,1-5.875-29.816q0-20.29,23.319-47.881,11.748-13.169,16.109-17.623a60.334,60.334,0,0,0,8.633-14.684q.623-1.512,5.519-16.2l.356-1.068-.444-.98-.891.534q-7.122,19.226-16.642,29.992L1303.236,123.3q-4.718,6.942-7.654,12.193Q1285.081,154.625,1285.081,173.757Z" transform="translate(5533.872 1757.146)" fill="#b1339f"/>
    <path id="Path_28205" data-name="Path 28205" d="M1185.642,279.87q45.485,0,45.485-86.112,0-20.776-15.713-53.858a429.15,429.15,0,0,0,50.653-26.877l.1-1.344-1.136-.516q-32.874,17.779-51.481,24.914a269.473,269.473,0,0,0-33.907-51.068l-.516,3.721q0,12.088.24,12.913l11.449,44.974q-28.537,14.681-39.806,26.257-16.954,17.367-16.955,43.316,0,10.132,6.2,25.74Q1155.352,279.871,1185.642,279.87Zm1.861-166.124.207-.723q6.1,5.789,17.574,26.566l-10.545,5.17Q1187.5,114.678,1187.5,113.746Zm-31.736,64.4q13.543-15.3,36.079-27.394,10.237,44.448,11.581,54.58l1.135.622,1.03-.622a3.737,3.737,0,0,0,.414-1.964q-2.785-19.11-10.213-54.642l11.551-5.432q20.162,36.7,20.164,62.134,0,16.235-9.924,32.982-10.753,18.2-25.431,21.814a51.359,51.359,0,0,1-12.2,1.654,36.138,36.138,0,0,1-25.016-9.718q-9.824-8.783-14.162-23.153a37.774,37.774,0,0,1-1.965-10.027Q1138.813,197.375,1155.767,178.15Z" transform="translate(5568.54 1752.92)" fill="#ff9748"/>
  </g>
  <path id="Path_28219" data-name="Path 28219" d="M770.311,452.541c34.677-85.025-151.722-252.517-313.863-235.24-166.337,17.726-206.061,233.133-87.683,332.611,84.509,71.017,162.384,75.119,272.936,65.6-73.435-19.542-117.207-34.468-147.852-56.554C531.886,557.219,740.612,525.346,770.311,452.541Z" transform="translate(2.473 542.333)" fill="none" stroke="#fff" stroke-width="3"/>
  <text id="Placeholder_Text" data-name="Placeholder Text" transform="translate(516 925)" fill="#fff" font-size="87" font-family="DGBebo-Thin, DG Bebo" font-weight="200"><tspan x="-132" y="0">أهلا بك</tspan><tspan y="0"></tspan><tspan x="-118" y="99">يا بطل</tspan></text>
</svg>
