<svg id="Group_8105" data-name="Group 8105" xmlns="http://www.w3.org/2000/svg" xmlns:xlink="http://www.w3.org/1999/xlink" width="460.396" height="125.402" viewBox="0 0 460.396 125.402">
  <defs>
    <clipPath id="clip-path">
      <rect id="Rectangle_17325" data-name="Rectangle 17325" width="460.396" height="125.402" fill="none"/>
    </clipPath>
  </defs>
  <path id="Path_28131" data-name="Path 28131" d="M5.3,194.35l-3.5,4.469H1.746V194.35H0v9.835H1.746v-2.869l1.414-1.755,2.659,4.625H7.744l-3.538-6,3.026-3.837Z" transform="translate(0 -91.558)"/>
  <rect id="Rectangle_17323" data-name="Rectangle 17323" width="1.734" height="7.388" transform="translate(8.828 105.24)"/>
  <g id="Group_8104" data-name="Group 8104">
    <g id="Group_8103" data-name="Group 8103" clip-path="url(#clip-path)">
      <path id="Path_28132" data-name="Path 28132" d="M17.387,192.825a.985.985,0,1,0,1.071.98.99.99,0,0,0-1.071-.98" transform="translate(-7.686 -90.839)"/>
      <path id="Path_28133" data-name="Path 28133" d="M28.167,198.638a3.455,3.455,0,0,0-2.426,1.179h-.046l-.133-1h-1.42v7.388h1.733v-5.163a2.325,2.325,0,0,1,1.684-.92c.8,0,1.15.457,1.15,1.673v4.41h1.732v-4.634c0-1.864-.692-2.935-2.274-2.935" transform="translate(-11.373 -93.578)"/>
      <path id="Path_28134" data-name="Path 28134" d="M43.42,205.045H42.106c-.9,0-1.2-.253-1.2-.668a.847.847,0,0,1,.36-.706,2.86,2.86,0,0,0,1,.195,2.52,2.52,0,0,0,2.811-2.52,1.947,1.947,0,0,0-.421-1.24H46v-1.287H43.363a3.279,3.279,0,0,0-1.1-.181,2.689,2.689,0,0,0-2.917,2.653,2.461,2.461,0,0,0,.974,1.95v.06a1.79,1.79,0,0,0-.818,1.378,1.4,1.4,0,0,0,.668,1.234v.06a1.881,1.881,0,0,0-1.066,1.575c0,1.294,1.313,1.926,3.075,1.926,2.412,0,3.941-1.148,3.941-2.6,0-1.276-.94-1.823-2.705-1.823m-1.152-5.21a1.3,1.3,0,0,1,1.283,1.455,1.3,1.3,0,1,1-2.564,0,1.293,1.293,0,0,1,1.28-1.455m.181,8.513c-1.16,0-1.882-.391-1.882-1.066a1.225,1.225,0,0,1,.571-.973,4.03,4.03,0,0,0,1,.1h1.013c.847,0,1.3.169,1.3.74,0,.637-.812,1.2-2,1.2" transform="translate(-18.424 -93.577)"/>
      <path id="Path_28135" data-name="Path 28135" d="M64.636,198.628l-1.326-.556c-.816-.333-1.564-.62-1.564-1.392,0-.719.606-1.155,1.54-1.155a3.167,3.167,0,0,1,2.136.845l.9-1.108a4.313,4.313,0,0,0-3.032-1.254c-1.92,0-3.3,1.205-3.3,2.774a2.822,2.822,0,0,0,1.989,2.607l1.345.583c.892.379,1.527.638,1.527,1.448,0,.767-.607,1.268-1.714,1.268a3.868,3.868,0,0,1-2.564-1.121l-1.016,1.2a5.069,5.069,0,0,0,3.544,1.442c2.208,0,3.531-1.33,3.531-2.924a2.725,2.725,0,0,0-1.988-2.654" transform="translate(-28.054 -91.397)"/>
      <path id="Path_28136" data-name="Path 28136" d="M78.606,198.638a5.758,5.758,0,0,0-3.032.967l.638,1.156a4.071,4.071,0,0,1,2.075-.728c1,0,1.318.662,1.341,1.457-3.032.324-4.343,1.148-4.343,2.73a2.07,2.07,0,0,0,2.183,2.167,3.571,3.571,0,0,0,2.292-1h.049l.132.819h1.421v-4.374c0-2.058-.91-3.194-2.757-3.194m1.023,5.589a2.33,2.33,0,0,1-1.606.8c-.62,0-1.065-.287-1.065-.939,0-.746.667-1.268,2.67-1.522Z" transform="translate(-35.467 -93.578)"/>
      <path id="Path_28137" data-name="Path 28137" d="M92.814,202.25c-.181,0-.372-.15-.372-.578v-8.814H90.709v8.723c0,1.287.451,2.082,1.679,2.082a2.447,2.447,0,0,0,.913-.15l-.216-1.294a1.03,1.03,0,0,1-.271.03" transform="translate(-42.733 -90.855)"/>
      <path id="Path_28138" data-name="Path 28138" d="M107.247,201.8v4.409h1.733v-4.632c0-1.866-.722-2.936-2.281-2.936a3.345,3.345,0,0,0-2.377,1.323,1.991,1.991,0,0,0-2.039-1.323,3.177,3.177,0,0,0-2.268,1.188h-.047l-.134-1.008H98.415v7.388h1.732v-5.161a2.3,2.3,0,0,1,1.547-.921c.777,0,1.137.457,1.137,1.673v4.409h1.733v-5.161a2.278,2.278,0,0,1,1.547-.921c.777,0,1.137.457,1.137,1.673" transform="translate(-46.363 -93.578)"/>
      <path id="Path_28139" data-name="Path 28139" d="M121.636,204.221a2.07,2.07,0,0,0,2.183,2.167,3.571,3.571,0,0,0,2.292-1h.049l.132.819h1.421v-4.376c0-2.056-.91-3.192-2.757-3.192a5.755,5.755,0,0,0-3.032.967l.638,1.155a4.079,4.079,0,0,1,2.075-.727c1,0,1.318.661,1.341,1.456-3.032.325-4.343,1.15-4.343,2.731m4.343-1.654v1.661a2.326,2.326,0,0,1-1.606.8c-.62,0-1.065-.286-1.065-.939,0-.746.667-1.27,2.67-1.522" transform="translate(-57.302 -93.578)"/>
      <path id="Path_28140" data-name="Path 28140" d="M141.085,198.638a3.455,3.455,0,0,0-2.426,1.179h-.046l-.133-1h-1.42v7.388h1.733v-5.163a2.325,2.325,0,0,1,1.684-.92c.8,0,1.15.457,1.15,1.673v4.41h1.732v-4.634c0-1.864-.692-2.935-2.274-2.935" transform="translate(-64.569 -93.578)"/>
      <path id="Path_28141" data-name="Path 28141" d="M162.608,204.2a4.474,4.474,0,0,0,3.14-1.167V198.7H162.33v1.431h1.854v2.125a2.2,2.2,0,0,1-1.4.432c-1.974,0-3.014-1.359-3.014-3.6,0-2.209,1.173-3.562,2.918-3.562a2.66,2.66,0,0,1,1.985.854l.934-1.125a4.05,4.05,0,0,0-2.973-1.246c-2.616,0-4.655,1.912-4.655,5.131,0,3.255,1.978,5.066,4.632,5.066" transform="translate(-74.422 -91.396)"/>
      <path id="Path_28142" data-name="Path 28142" d="M178.2,203.663a2.444,2.444,0,0,0,.914-.15l-.216-1.294a1.026,1.026,0,0,1-.271.03c-.18,0-.372-.151-.372-.578v-8.815h-1.734v8.724c0,1.287.452,2.082,1.68,2.082" transform="translate(-83.16 -90.854)"/>
      <path id="Path_28143" data-name="Path 28143" d="M186.826,206.387a3.893,3.893,0,1,0-3.513-3.869,3.576,3.576,0,0,0,3.513,3.869m0-6.335c1.082,0,1.733.986,1.733,2.466s-.651,2.455-1.733,2.455-1.734-.975-1.734-2.455.652-2.466,1.734-2.466" transform="translate(-86.358 -93.578)"/>
      <path id="Path_28144" data-name="Path 28144" d="M201.189,202.709h.046a2.972,2.972,0,0,0,2.016.956c1.644,0,3.154-1.462,3.154-4,0-2.27-1.068-3.75-2.915-3.75a3.354,3.354,0,0,0-2.134.92l.049-1.228V192.86h-1.734v10.625h1.367Zm.216-4.531a2.319,2.319,0,0,1,1.611-.83c1.126,0,1.608.873,1.608,2.346,0,1.673-.753,2.539-1.74,2.539a2.281,2.281,0,0,1-1.48-.614Z" transform="translate(-94.065 -90.856)"/>
      <path id="Path_28145" data-name="Path 28145" d="M219.066,205.389h.048l.133.818h1.42v-4.374c0-2.058-.909-3.194-2.757-3.194a5.751,5.751,0,0,0-3.031.967l.637,1.155a4.085,4.085,0,0,1,2.076-.727c1,0,1.317.661,1.34,1.456-3.031.325-4.343,1.149-4.343,2.731a2.072,2.072,0,0,0,2.184,2.167,3.574,3.574,0,0,0,2.292-1m-2.8-1.3c0-.746.668-1.268,2.67-1.522v1.661a2.325,2.325,0,0,1-1.6.8c-.62,0-1.066-.286-1.066-.939" transform="translate(-101.092 -93.578)"/>
      <path id="Path_28146" data-name="Path 28146" d="M232.118,202.25c-.181,0-.372-.15-.372-.578v-8.814h-1.733v8.723c0,1.287.451,2.082,1.679,2.082a2.447,2.447,0,0,0,.913-.15l-.216-1.294a1.026,1.026,0,0,1-.271.03" transform="translate(-108.359 -90.855)"/>
      <path id="Path_28147" data-name="Path 28147" d="M243.816,201.52h3.3l.763,2.665h1.847l-3.207-9.837h-2.045l-3.207,9.837h1.782Zm.741-2.569c.313-1.04.6-2.154.872-3.242h.06c.289,1.079.578,2.2.891,3.242l.343,1.2h-2.512Z" transform="translate(-113.659 -91.557)"/>
      <path id="Path_28148" data-name="Path 28148" d="M263.622,204.335a2.428,2.428,0,0,1-1.529.638c-1.149,0-1.962-.975-1.962-2.454s.825-2.468,2.017-2.468a1.807,1.807,0,0,1,1.228.543l.842-1.126a3.161,3.161,0,0,0-2.161-.83,3.651,3.651,0,0,0-3.7,3.881c0,2.448,1.545,3.868,3.561,3.868a3.649,3.649,0,0,0,2.412-.909Z" transform="translate(-121.709 -93.578)"/>
      <path id="Path_28149" data-name="Path 28149" d="M277.453,201.832c0-2.058-.909-3.194-2.757-3.194a5.766,5.766,0,0,0-3.033.967l.639,1.156a4.073,4.073,0,0,1,2.075-.728c1,0,1.318.662,1.341,1.457-3.032.324-4.343,1.148-4.343,2.73a2.07,2.07,0,0,0,2.183,2.167,3.571,3.571,0,0,0,2.292-1h.049l.132.819h1.421Zm-1.734,2.395a2.328,2.328,0,0,1-1.606.8c-.62,0-1.065-.287-1.065-.939,0-.746.667-1.268,2.67-1.522Z" transform="translate(-127.845 -93.578)"/>
      <path id="Path_28150" data-name="Path 28150" d="M292.678,203.483V192.858h-1.734v2.677l.066,1.193a2.715,2.715,0,0,0-1.937-.812c-1.619,0-3.129,1.474-3.129,3.881,0,2.437,1.193,3.868,3.033,3.868a3.1,3.1,0,0,0,2.1-.981h.049l.132.8Zm-1.734-2.082a1.952,1.952,0,0,1-1.54.831c-1.065,0-1.68-.848-1.68-2.456,0-1.54.777-2.43,1.715-2.43a2.179,2.179,0,0,1,1.5.614Z" transform="translate(-134.708 -90.855)"/>
      <path id="Path_28151" data-name="Path 28151" d="M307.5,204.509a3.146,3.146,0,0,1-1.714.536,2.1,2.1,0,0,1-2.179-2.059h4.69a4.517,4.517,0,0,0,.075-.841c0-2.064-1.052-3.508-3.051-3.508a3.894,3.894,0,0,0,.236,7.749,4.581,4.581,0,0,0,2.532-.8Zm-2.142-4.53c1.011,0,1.516.692,1.516,1.829h-3.285a1.855,1.855,0,0,1,1.769-1.829" transform="translate(-142.231 -93.578)"/>
      <path id="Path_28152" data-name="Path 28152" d="M321.668,206.206H323.4v-5.161a2.275,2.275,0,0,1,1.546-.922c.776,0,1.138.458,1.138,1.673v4.409h1.732v-4.632c0-1.866-.722-2.936-2.28-2.936a3.342,3.342,0,0,0-2.377,1.324,1.99,1.99,0,0,0-2.039-1.324,3.176,3.176,0,0,0-2.268,1.188H318.8l-.132-1.008h-1.421v7.388h1.734v-5.161a2.3,2.3,0,0,1,1.545-.922c.778,0,1.138.458,1.138,1.673Z" transform="translate(-149.456 -93.577)"/>
      <path id="Path_28153" data-name="Path 28153" d="M342.252,206.74a1.561,1.561,0,0,1-1.474,1.268,2.059,2.059,0,0,1-.53-.1l-.318,1.341a2.887,2.887,0,0,0,.962.151c1.612,0,2.389-1.032,3-2.7l2.673-7.725h-1.674l-1.1,3.621c-.193.675-.379,1.4-.564,2.088h-.061c-.216-.7-.427-1.433-.65-2.088l-1.275-3.621h-1.757l2.905,7.3Z" transform="translate(-159.931 -93.739)"/>
      <path id="Path_28154" data-name="Path 28154" d="M361.1,195.143v.772l-.993.071v1.3h.993V203.3h1.733v-6.011h1.443v-1.377h-1.443v-.794c0-.857.325-1.246.938-1.246a2.056,2.056,0,0,1,.8.175l.331-1.294a3.755,3.755,0,0,0-1.353-.259c-1.745,0-2.448,1.123-2.448,2.654" transform="translate(-169.644 -90.681)"/>
      <path id="Path_28155" data-name="Path 28155" d="M372.745,198.611a3.893,3.893,0,1,0,3.513,3.881,3.579,3.579,0,0,0-3.513-3.881m0,6.335c-1.082,0-1.734-.975-1.734-2.455s.652-2.466,1.734-2.466,1.733.986,1.733,2.466-.651,2.455-1.733,2.455" transform="translate(-173.944 -93.565)"/>
      <path id="Path_28156" data-name="Path 28156" d="M387.363,200.109h-.049l-.132-1.317h-1.421v7.388h1.734v-4.506c.445-1.126,1.155-1.529,1.745-1.529a2.474,2.474,0,0,1,.758.12l.3-1.5a1.863,1.863,0,0,0-.837-.151,2.522,2.522,0,0,0-2.1,1.5" transform="translate(-181.731 -93.565)"/>
      <path id="Path_28157" data-name="Path 28157" d="M403.124,194.323l-3.207,9.837H401.7l.769-2.665h3.3l.763,2.665h1.847l-3.207-9.837Zm-.262,5.8.346-1.2c.313-1.042.6-2.154.873-3.243h.06c.288,1.079.576,2.2.89,3.243l.344,1.2Z" transform="translate(-188.4 -91.545)"/>
      <path id="Path_28158" data-name="Path 28158" d="M419.524,200.109h-.049l-.132-1.317h-1.421v7.388h1.734v-4.506c.445-1.126,1.155-1.529,1.745-1.529a2.474,2.474,0,0,1,.758.12l.3-1.5a1.862,1.862,0,0,0-.836-.151,2.522,2.522,0,0,0-2.1,1.5" transform="translate(-196.882 -93.565)"/>
      <path id="Path_28159" data-name="Path 28159" d="M430.361,198.612a5.761,5.761,0,0,0-3.033.968l.639,1.156a4.067,4.067,0,0,1,2.075-.729c1,0,1.318.663,1.341,1.457-3.032.324-4.343,1.148-4.343,2.73a2.07,2.07,0,0,0,2.183,2.167,3.571,3.571,0,0,0,2.292-1h.049l.132.819h1.421v-4.374c0-2.057-.91-3.194-2.757-3.194m1.023,5.589a2.328,2.328,0,0,1-1.606.8c-.62,0-1.065-.287-1.065-.939,0-.746.667-1.268,2.67-1.522Z" transform="translate(-201.178 -93.566)"/>
      <path id="Path_28160" data-name="Path 28160" d="M446.279,195.888a3.351,3.351,0,0,0-2.133.92l.048-1.228v-2.75h-1.734v10.626h1.367l.15-.776h.048a2.97,2.97,0,0,0,2.015.957c1.643,0,3.154-1.461,3.154-4,0-2.272-1.069-3.75-2.916-3.75m-.6,6.317a2.282,2.282,0,0,1-1.48-.614v-3.442a2.318,2.318,0,0,1,1.613-.83c1.125,0,1.607.872,1.607,2.346,0,1.672-.753,2.539-1.739,2.539" transform="translate(-208.442 -90.842)"/>
      <path id="Path_28161" data-name="Path 28161" d="M459.167,192.8a.985.985,0,1,0,1.071.98.99.99,0,0,0-1.071-.98" transform="translate(-215.807 -90.827)"/>
      <rect id="Rectangle_17324" data-name="Rectangle 17324" width="1.734" height="7.388" transform="translate(242.486 105.227)"/>
      <path id="Path_28162" data-name="Path 28162" d="M468.743,204.946c-1.149,0-1.962-.975-1.962-2.455s.825-2.466,2.016-2.466a1.815,1.815,0,0,1,1.228.541l.843-1.125a3.161,3.161,0,0,0-2.161-.83,3.651,3.651,0,0,0-3.7,3.881c0,2.448,1.545,3.869,3.561,3.869a3.66,3.66,0,0,0,2.414-.908l-.7-1.144a2.425,2.425,0,0,1-1.529.638" transform="translate(-219.061 -93.565)"/>
      <path id="Path_28163" data-name="Path 28163" d="M486.774,194.322h-1.745v9.837h5.831V202.69h-4.086Z" transform="translate(-228.496 -91.545)"/>
      <path id="Path_28164" data-name="Path 28164" d="M501.591,198.612a5.762,5.762,0,0,0-3.033.968l.639,1.156a4.069,4.069,0,0,1,2.075-.729c1,0,1.318.663,1.341,1.457-3.032.324-4.343,1.148-4.343,2.73a2.07,2.07,0,0,0,2.183,2.167,3.571,3.571,0,0,0,2.292-1h.049l.132.819h1.421v-4.374c0-2.057-.909-3.194-2.757-3.194m1.023,5.589a2.326,2.326,0,0,1-1.606.8c-.62,0-1.065-.287-1.065-.939,0-.746.667-1.268,2.67-1.522Z" transform="translate(-234.734 -93.566)"/>
      <path id="Path_28165" data-name="Path 28165" d="M517.719,198.611a3.455,3.455,0,0,0-2.426,1.179h-.046l-.133-1h-1.42v7.387h1.733v-5.162a2.325,2.325,0,0,1,1.684-.92c.8,0,1.15.458,1.15,1.673v4.409h1.732v-4.633c0-1.864-.692-2.935-2.274-2.935" transform="translate(-242 -93.565)"/>
      <path id="Path_28166" data-name="Path 28166" d="M532.971,205.019h-1.313c-.9,0-1.2-.253-1.2-.668a.85.85,0,0,1,.362-.707,2.823,2.823,0,0,0,1,.2,2.521,2.521,0,0,0,2.811-2.52,1.946,1.946,0,0,0-.421-1.24h1.348v-1.287h-2.642a3.279,3.279,0,0,0-1.1-.181,2.688,2.688,0,0,0-2.917,2.652,2.458,2.458,0,0,0,.974,1.95v.06a1.787,1.787,0,0,0-.819,1.378,1.4,1.4,0,0,0,.669,1.234v.059a1.883,1.883,0,0,0-1.066,1.575c0,1.294,1.312,1.926,3.075,1.926,2.412,0,3.941-1.148,3.941-2.6,0-1.277-.94-1.823-2.706-1.823m-1.151-5.21a1.3,1.3,0,0,1,1.283,1.454,1.3,1.3,0,1,1-2.565,0,1.293,1.293,0,0,1,1.281-1.454m.181,8.513c-1.162,0-1.884-.391-1.884-1.066a1.227,1.227,0,0,1,.572-.973,4.024,4.024,0,0,0,1,.1H532.7c.846,0,1.3.168,1.3.74,0,.637-.812,1.2-2,1.2" transform="translate(-249.051 -93.565)"/>
      <path id="Path_28167" data-name="Path 28167" d="M548.762,204.012c-.559.722-.986,1.023-1.636,1.023-.8,0-1.149-.456-1.149-1.672v-4.41h-1.734v4.632c0,1.865.692,2.936,2.275,2.936a3.005,3.005,0,0,0,2.376-1.27h.049l.132,1.089h1.42v-7.388h-1.733Z" transform="translate(-256.392 -93.726)"/>
      <path id="Path_28168" data-name="Path 28168" d="M562.784,198.612a5.754,5.754,0,0,0-3.032.968l.638,1.156a4.069,4.069,0,0,1,2.075-.729c1,0,1.318.663,1.341,1.457-3.032.324-4.343,1.148-4.343,2.73a2.07,2.07,0,0,0,2.183,2.167,3.571,3.571,0,0,0,2.292-1h.049l.132.819h1.421v-4.374c0-2.057-.91-3.194-2.757-3.194m1.023,5.589a2.327,2.327,0,0,1-1.606.8c-.62,0-1.065-.287-1.065-.939,0-.746.667-1.268,2.67-1.522Z" transform="translate(-263.562 -93.566)"/>
      <path id="Path_28169" data-name="Path 28169" d="M578.241,205.019h-1.314c-.9,0-1.2-.253-1.2-.668a.85.85,0,0,1,.361-.707,2.828,2.828,0,0,0,1,.2,2.521,2.521,0,0,0,2.811-2.52,1.946,1.946,0,0,0-.422-1.24h1.348v-1.287h-2.642a3.274,3.274,0,0,0-1.1-.181,2.689,2.689,0,0,0-2.917,2.652,2.458,2.458,0,0,0,.975,1.95v.06a1.788,1.788,0,0,0-.818,1.378,1.4,1.4,0,0,0,.668,1.234v.059a1.882,1.882,0,0,0-1.066,1.575c0,1.294,1.312,1.926,3.075,1.926,2.412,0,3.941-1.148,3.941-2.6,0-1.277-.94-1.823-2.705-1.823m-1.153-5.21a1.3,1.3,0,0,1,1.284,1.454,1.3,1.3,0,1,1-2.564,0,1.293,1.293,0,0,1,1.28-1.454m.181,8.513c-1.161,0-1.882-.391-1.882-1.066a1.224,1.224,0,0,1,.57-.973,4.03,4.03,0,0,0,1,.1h1.013c.846,0,1.3.168,1.3.74,0,.637-.811,1.2-2,1.2" transform="translate(-270.377 -93.565)"/>
      <path id="Path_28170" data-name="Path 28170" d="M591.7,198.612a3.894,3.894,0,0,0,.234,7.749,4.6,4.6,0,0,0,2.533-.8l-.59-1.078a3.144,3.144,0,0,1-1.714.536,2.1,2.1,0,0,1-2.179-2.057h4.69a4.424,4.424,0,0,0,.076-.843c0-2.063-1.054-3.507-3.051-3.507m-1.733,3.17a1.855,1.855,0,0,1,1.769-1.829c1.01,0,1.516.692,1.516,1.829Z" transform="translate(-277.144 -93.566)"/>
      <path id="Path_28171" data-name="Path 28171" d="M14.205,53.668H51.642a7.781,7.781,0,0,0,3.338-4.592q.154-1.543.154-3.107c0-.426-.005-.842-.02-1.256A42.5,42.5,0,0,0,53.9,37.9l-.542-.154-2.816,4.188A59.191,59.191,0,0,1,52.2,49.288h-38a25.944,25.944,0,0,1-6.795-.87q-5.67-1.832-5.672-6.907v-.984l-.5-.193A11.374,11.374,0,0,0,0,44.6v.733q0,8.279,14.2,8.337" transform="translate(0 -17.783)"/>
      <path id="Path_28172" data-name="Path 28172" d="M49.762,39.375v-.059A26.938,26.938,0,0,0,46,36.983a.558.558,0,0,0-.251.056,6.074,6.074,0,0,0-1.659,3.4v.058a26.571,26.571,0,0,0,3.9,2.277,6.074,6.074,0,0,0,1.777-3.4" transform="translate(-20.77 -17.423)"/>
      <path id="Path_28173" data-name="Path 28173" d="M184.675,41.641a12.471,12.471,0,0,0,.772-4.536v-2.45L185,34.366l-2.875,2.99.039,4.188q-4.941-.213-5.615-1.1l1.391-5.675-.407-.212-2.585,2.47-1.274,4.42h-8.357a13.9,13.9,0,0,0,1.371-2.6,6.868,6.868,0,0,0,.48-2.479l-.5-.233a16.319,16.319,0,0,1-2.7,3.272,9.122,9.122,0,0,1-4.574,2.036h-4.749a3.537,3.537,0,0,1-3.423-1.738q-.938-1.734-1.322-6.735t-1.064-11.869h-.481l-2.046,3.534q.674,6.713.966,10.612a44.15,44.15,0,0,0,.541,4.729q-.947,1.486-4.789,1.485c-.2,0-.41-.005-.617-.017h-.918a10.163,10.163,0,0,1-1.686-.5,6.619,6.619,0,0,1-3.725-6.059V33.439c0-.154-.288-.271-.867-.347a12.6,12.6,0,0,0-5.655,1.523,9.983,9.983,0,0,0-4.225,3.726q-1.622,3.165-6.118,3.164h-.2c-.034-.029-.068-.057-.086-.057h-.619a3.558,3.558,0,0,1-3.432-1.738q-.947-1.734-1.323-6.735T112.5,21.106H112l-2.026,3.534q.674,6.713.955,10.612A34.831,34.831,0,0,0,111.691,41a6.142,6.142,0,0,0,2.527,3.589,7.023,7.023,0,0,0,3.786,1.2l.035.038h.888l.013-.013a12.057,12.057,0,0,0,2.437-.6q1.911-.608,3.03-3.522.059.56,1.544,1.854a40.2,40.2,0,0,0,9.358,3.915q.676,0,1.835-2.507a8.326,8.326,0,0,0,4.032.868H142.2l.028-.03a8.034,8.034,0,0,0,2.48-.4,8.251,8.251,0,0,0,3.744-3.317,5.687,5.687,0,0,0,2.124,2.508,7,7,0,0,0,3.888,1.207l.029.03h4.747a5.738,5.738,0,0,0,3.243-1.757l.618,1.757h5.769v-.021h3.107l1.929-1.853q2.007,1.8,7.43,1.874h.908a13.25,13.25,0,0,0,2.43-4.188m-50.271.52q-5.711-2.083-6.734-3.359v-.115a17.907,17.907,0,0,1,5.211-1.407.729.729,0,0,1,.6.347v1.216a6.462,6.462,0,0,0,.925,3.224Z" transform="translate(-51.808 -9.943)"/>
      <path id="Path_28174" data-name="Path 28174" d="M297.722,42.283l.134.058q3.089-1.737,3.089-4.573,0-1.718-4.825-1.718a9.434,9.434,0,0,1,5.248-1.794h.617q1.545,0,1.544,1.233h.058a4.032,4.032,0,0,0,1.177-2.411q0-1.351-1.795-1.35h-.734a10.2,10.2,0,0,0-6.292,2.586q-2.236,2.065-2.238,3.4v.251c0,.413.355.617,1.063.617h.675a6.706,6.706,0,0,1,3.9.926,11.563,11.563,0,0,1-5.81,1.178q-2.044-.078-4.515-.386l-.117.076v.058a16.626,16.626,0,0,0,8.029,2.1,1.578,1.578,0,0,0,.791-.251" transform="translate(-136.101 -14.947)"/>
      <path id="Path_28175" data-name="Path 28175" d="M288.623,45.829h12.93a15.479,15.479,0,0,0,3.762-3.744,10.069,10.069,0,0,0,3.341,5.906,3.916,3.916,0,0,0,2.739,1.042,6.587,6.587,0,0,0,1.66-.232,5.105,5.105,0,0,0,1.544-1.66,7.606,7.606,0,0,0,.694-3.8v-.58a7.4,7.4,0,0,0,4.978,3.01,9.79,9.79,0,0,0,1.058.055l0,0h.424c.02-.015.027-.024.046-.039a9.581,9.581,0,0,0,2.386-.424,12.8,12.8,0,0,1,3.9-1.292h.157q1.466,0,5.654,2.294h.327a18.29,18.29,0,0,0,1.448-3.744,1.645,1.645,0,0,0,.077-.52,1.34,1.34,0,0,0-.04-.347,11.219,11.219,0,0,0-1.776-1.216,8.7,8.7,0,0,1-3.512-2.2q-.926-1.158-1.485-7.971l1.08.541h.29l1.891-3.7v-.424l-3.784-2.451a2.675,2.675,0,0,1-1.793-2.47c0-.155.005-.31.02-.464l-.347-.27-.271.424a8.237,8.237,0,0,0-1.717,4.323v.463q0,1.158,2.181,2.336,1,10.441,1.119,11.406a11.176,11.176,0,0,1-5.578,1.37c-.219,0-.431-.006-.637-.02l-.028.02h-.223c-.244,0-.591-.02-1.04-.057a3.394,3.394,0,0,1-2.606-1.7q-.985-1.718-2.76-18.585h-.5l-2.084,3.533q1.543,13.814,1.582,16.035a20.382,20.382,0,0,1-.492,3.1,1.376,1.376,0,0,1-1.476,1.032l-.02.02q-2.123,0-3.29-2.5t-2.6-21.219h-.5l-2.18,3.533.946,10.612a44.764,44.764,0,0,0,.541,4.728q-.772,1.466-4.71,1.467H288.623a27.717,27.717,0,0,1-6.793-.811q-5.673-1.833-5.674-6.907v-.985l-.5-.193a11.362,11.362,0,0,0-1.234,4.266v.733q0,8.277,14.2,8.278" transform="translate(-129.279 -9.944)"/>
      <path id="Path_28176" data-name="Path 28176" d="M397.45,45.863a21.035,21.035,0,0,0,2.065-6.29q0-4.287-2.124-18.393h-.675l-2.257,4.594q2.315,14.607,2.315,20.088Z" transform="translate(-185.829 -9.978)"/>
      <path id="Path_28177" data-name="Path 28177" d="M483.9,47.626q4.108-2.709,5.96-2.808a10.672,10.672,0,0,0,1.1,3.975q.812,1.835,5.135,1.833h3.9l.024-.024a10.092,10.092,0,0,0,3.391-.554,9.391,9.391,0,0,0,1.65-1.631q.725-.916,1.612-2.247a14.081,14.081,0,0,0,2.45,1.408,30.9,30.9,0,0,0,6.193,2.065q.466,0,2.547-3.976V44.085q-.711-8.26-4.379-8.259h-.154q-4.169,0-7.585,8.569-1.332,1.832-6.021,1.833h-5.672a2.856,2.856,0,0,1-2.338-1.717H495.4l2.18-4.131-.134-.348H496.42a36.329,36.329,0,0,1-9.4-1.755q-.715-.175-2.6-.657a13.23,13.23,0,0,0-3.193-.483h-.058a6.25,6.25,0,0,0-5.345,2.646A11.368,11.368,0,0,0,474.286,43l.464.232a4.5,4.5,0,0,1,3.782-1.718h.559a17.619,17.619,0,0,1,3.869.608q2.5.608,2.906.724-4.477,2.835-11.849,3.377h-2.509l-.041.057h-.1a10.091,10.091,0,0,1-1.929-.56,6.615,6.615,0,0,1-3.724-6.059V38.219c0-.154-.291-.271-.87-.347a12.588,12.588,0,0,0-5.654,1.523,9.989,9.989,0,0,0-4.225,3.726q-1.622,3.165-6.118,3.164h-.363l-.06-.057h-3.9q-5.038,0-6.407-1.274l-.193-.213,1.408-.56a20.548,20.548,0,0,0,4.227-1.717l1.678-3.723-.521-.367Q439.125,40.824,434.3,43a10.976,10.976,0,0,1-4.4-1.988q-2.779-2.026-2.78-3.455,1.815-2.394,6.351-2.392a28.247,28.247,0,0,1,5.094.656h.057l.407-.617-.193-.309q-3.687-3.241-5.559-3.647a7.091,7.091,0,0,0-5,2.277q-2.95,3.472-2.951,6.735,0,3.667,5,6a14.616,14.616,0,0,0-3.694,5.451,13.886,13.886,0,0,0-.9,4.045v1.891a7.523,7.523,0,0,0,.868,2.893q2.256,3.763,10.864,3.764,4.478,0,6.677-1.312l3.917-2.453v-.616h-8.818q-6.159,0-9.206-2.335a5.029,5.029,0,0,1-2.162-4.13,6.7,6.7,0,0,1,.058-.868,10.321,10.321,0,0,1,3.261-3.918,20.685,20.685,0,0,1,5.269-3.338,10.127,10.127,0,0,0,.444,2.837q1.33,2.43,6.966,2.432h4.574A10.77,10.77,0,0,0,451.013,50q1.91-.608,3.03-3.522.058.56,1.544,1.854a40.158,40.158,0,0,0,9.36,3.915q.674,0,1.833-2.507a8.322,8.322,0,0,0,4.032.868h3.2a19.243,19.243,0,0,0,9.882-2.982m28.155-8.019q2.044.154,3.107,5.462a25.681,25.681,0,0,1-6.349-2.758q1.295-2.451,3.242-2.7m-48.014,7.334q-5.71-2.083-6.734-3.359v-.115a17.907,17.907,0,0,1,5.211-1.407.73.73,0,0,1,.6.347v1.216a6.462,6.462,0,0,0,.925,3.224Z" transform="translate(-200.371 -14.723)"/>
      <path id="Path_28178" data-name="Path 28178" d="M534.668,71.893a6.39,6.39,0,0,0-1.523,3.145.776.776,0,0,1,.058.213q3.568,2.141,3.726,2.143h.153a6.466,6.466,0,0,0,1.622-3.32.328.328,0,0,0-.04-.136q-.677-.461-3.686-2.257c-.065,0-.167.07-.309.213" transform="translate(-251.163 -33.768)"/>
      <path id="Path_28179" data-name="Path 28179" d="M6.711,103.942a19.814,19.814,0,0,0-3.877-2.162A6.939,6.939,0,0,0,1.1,105.2a20.563,20.563,0,0,0,3.878,2.51q.309-.06,1.642-2.143a18.117,18.117,0,0,0,3.607,1.988h.154a5.842,5.842,0,0,0,1.582-3.224v-.154q0-.347-3.723-2.394-.659,0-1.526,2.162" transform="translate(-0.516 -47.948)"/>
      <path id="Path_28180" data-name="Path 28180" d="M102.717,155.052q-.6,0-1.581,2.143-3.515-2.047-3.553-2.143a.9.9,0,0,0-.366.1,7.1,7.1,0,0,0-1.582,3.318v.059a31.176,31.176,0,0,0,3.783,2.335,4.9,4.9,0,0,0,1.467-2.084v-.056q3.569,2.044,3.627,2.14l.193-.039a6.338,6.338,0,0,0,1.679-3.378v-.036a27.935,27.935,0,0,0-3.666-2.355" transform="translate(-45.053 -73.045)"/>
      <path id="Path_28181" data-name="Path 28181" d="M79.009,127.38a14.323,14.323,0,0,0-2.53-7.236h-.307L74.183,124.1a24.956,24.956,0,0,1,2.161,4.881H71.6a5.875,5.875,0,0,1-3.271-.772,3.923,3.923,0,0,1-1.516-1.948c.372-.978.69-1.815.947-2.509l-1.718-.715q-2.778,5.945-7.043,5.944H18.526a6.334,6.334,0,0,1-3.339-1.91q-1.87-1.911-2.894-7.8a16.646,16.646,0,0,0-.5-3.627l-.117.056a6.284,6.284,0,0,0-1.487,3.571v.694l.059.115c-.244.155-.365.258-.365.31q-6.525,2.816-7.159,3.9A12.775,12.775,0,0,0,0,130.546v.251q0,1.426,2.723,1.427,5.247,0,7.776-1.853a5.227,5.227,0,0,0,1.235-2.316h.058q2.044,5.305,6.619,5.306h40.2a11.294,11.294,0,0,0,2.721-.617,7.178,7.178,0,0,0,3.878-3.9h.059a4.263,4.263,0,0,0,.445,1.621,5.506,5.506,0,0,0,4.8,2.894h6.6a30.583,30.583,0,0,0,1.893-5.981M5.135,127.8H4.015a7.776,7.776,0,0,1-1.736-.193v-.058a4.27,4.27,0,0,1,1.177-.791,30.331,30.331,0,0,0,5.615-2.6A7.289,7.289,0,0,0,10.5,122.3a24.574,24.574,0,0,0,.733,4.073,12.009,12.009,0,0,1-6.1,1.428" transform="translate(0 -54.481)"/>
      <path id="Path_28182" data-name="Path 28182" d="M137.74,157.365v.251a20.177,20.177,0,0,0,3.764,2.393q.81,0,1.891-3.512a25.753,25.753,0,0,0-3.784-2.393q-.906,0-1.871,3.261" transform="translate(-64.889 -72.598)"/>
      <path id="Path_28183" data-name="Path 28183" d="M190.833,101.2l.137-.713-.484-.271a7.8,7.8,0,0,0-1.95,4.574,3.676,3.676,0,0,0,1.988,3.281q2.162,10.44,2.162,13.642h-5.5a6.012,6.012,0,0,1-4.286-1.486,7.116,7.116,0,0,0,1.121-3.511V116.4a3.945,3.945,0,0,0-.154-.908,5.067,5.067,0,0,0-4.691-2.488h-.868a10.478,10.478,0,0,0-4.515,1.1q-.886,1.948-1.6,3.937l.173.174a7.473,7.473,0,0,1,1.467-.174q2.279,0,4.44,2.49a25.849,25.849,0,0,1-8.4,1.176h-1.544q-4.843-.537-5.441-5.537l-.637-.02a15.4,15.4,0,0,0-1.561,3.9,5.93,5.93,0,0,0,2.913,4.613l-.406.947q-3.453,5.923-9.938,5.924a13.841,13.841,0,0,1-4.015-.774l-.23.85q5.769,3.377,8.028,3.531a8.4,8.4,0,0,0,2.008-.269q.616-.1,2.565-2.277a21.988,21.988,0,0,0,3.9-7.1l.521.212a7.435,7.435,0,0,0,1.908.364l.021.022h.772q7.334-.27,11.464-3.049a2.265,2.265,0,0,1,.462.5q1.522,2.547,6.1,2.547H193.4a16.755,16.755,0,0,0,1.872-7.468,45.752,45.752,0,0,0-.927-8.085l.483.232.213-.059,1.891-3.8V106.6l-2.453-1.622q-3.646-2.1-3.647-3.782" transform="translate(-70.201 -47.21)"/>
      <path id="Path_28184" data-name="Path 28184" d="M248.582,102.475l-2.258,4.594q2.318,14.608,2.317,20.089h.675a21.085,21.085,0,0,0,2.064-6.292q0-4.283-2.122-18.39Z" transform="translate(-116.043 -48.276)"/>
      <path id="Path_28185" data-name="Path 28185" d="M283.573,103.942a19.837,19.837,0,0,0-3.878-2.162,6.947,6.947,0,0,0-1.737,3.416,20.478,20.478,0,0,0,3.878,2.51q.309-.06,1.64-2.143a18.081,18.081,0,0,0,3.609,1.988h.155a5.861,5.861,0,0,0,1.581-3.224v-.154q0-.347-3.724-2.394-.658,0-1.525,2.162" transform="translate(-130.945 -47.948)"/>
      <path id="Path_28186" data-name="Path 28186" d="M342.576,107.823a6.479,6.479,0,0,0-1.64,3.165v.346a28.129,28.129,0,0,0,3.763,2.2h.115a7.291,7.291,0,0,0,1.679-3.163v-.29q-.212-.232-3.724-2.317a.309.309,0,0,0-.193.058" transform="translate(-160.614 -50.768)"/>
      <path id="Path_28187" data-name="Path 28187" d="M340.178,101.2l.135-.713-.481-.271a7.8,7.8,0,0,0-1.951,4.574,3.672,3.672,0,0,0,1.989,3.281q2.159,10.441,2.162,13.644h-5.345a3.544,3.544,0,0,1-3.428-1.737q-.934-1.738-1.321-6.736t-1.062-11.869H330.4l-2.045,3.534q.674,6.713.964,10.612a45.013,45.013,0,0,0,.54,4.728q-.946,1.486-4.784,1.486c-.207,0-.413-.005-.619-.019H323.7a6,6,0,0,1-4.284-1.487,7.136,7.136,0,0,0,1.119-3.51v-.31a4.031,4.031,0,0,0-.154-.908,5.065,5.065,0,0,0-4.691-2.488h-.867a10.49,10.49,0,0,0-4.517,1.1q-.886,1.95-1.6,3.937l.176.174a7.451,7.451,0,0,1,1.467-.174q2.275,0,4.438,2.49a25.842,25.842,0,0,1-8.4,1.177h-11a6.337,6.337,0,0,1-3.338-1.91q-1.873-1.911-2.893-7.8a16.778,16.778,0,0,0-.5-3.627l-.117.056A6.279,6.279,0,0,0,287.053,112v.694l.058.115c-.245.155-.366.258-.366.31q-6.525,2.816-7.162,3.9a12.805,12.805,0,0,0-2.721,6.253v.251q0,1.426,2.721,1.427,5.25,0,7.778-1.853a5.228,5.228,0,0,0,1.236-2.316h.058q2.044,5.305,6.619,5.306h9.978q7.331-.27,11.461-3.049c.039,0,.2.169.464.5q1.526,2.547,6.1,2.547H324.3l.035-.032a7.994,7.994,0,0,0,2.415-.392,8.259,8.259,0,0,0,3.744-3.318,5.674,5.674,0,0,0,2.122,2.509,7.006,7.006,0,0,0,3.89,1.207l.027.027h6.214a16.741,16.741,0,0,0,1.873-7.468,45.778,45.778,0,0,0-.927-8.085l.483.232.213-.059,1.89-3.8v-.31l-2.45-1.621q-3.645-2.1-3.648-3.783M282,120.532h-1.12a7.775,7.775,0,0,1-1.736-.193v-.058a4.224,4.224,0,0,1,1.176-.791,30.314,30.314,0,0,0,5.616-2.6,7.252,7.252,0,0,0,1.428-1.854,24.575,24.575,0,0,0,.733,4.073,12.007,12.007,0,0,1-6.1,1.428" transform="translate(-130.429 -47.209)"/>
      <path id="Path_28188" data-name="Path 28188" d="M456.954,165.853a6.562,6.562,0,0,0-1.332,2.026.052.052,0,0,1-.059.058q-3.511-2.083-3.665-2.084h-.04l-.153.039a6.306,6.306,0,0,0-1.6,3.319v.193a31.925,31.925,0,0,0,3.878,2.2,5.256,5.256,0,0,0,1.333-2.082h.039q3.626,2.083,3.724,2.082h.115a7.35,7.35,0,0,0,1.623-3.106v-.464a35.89,35.89,0,0,0-3.783-2.18Z" transform="translate(-212.042 -78.133)"/>
      <path id="Path_28189" data-name="Path 28189" d="M470.594,121.852a8.675,8.675,0,0,1-3.511-2.2q-.926-1.156-1.487-7.971l1.081.54h.29l1.89-3.7v-.426l-3.782-2.45a2.671,2.671,0,0,1-1.793-2.47c0-.154,0-.308.017-.464l-.346-.269-.271.425a8.237,8.237,0,0,0-1.716,4.322v.464q0,1.158,2.18,2.335,1,10.44,1.118,11.4a11.16,11.16,0,0,1-5.575,1.37q-.329,0-.637-.019l-.028.019h-6.071l-2.064,4.111.193.269a12.833,12.833,0,0,1,4.061.561,4.485,4.485,0,0,1,2.577,2.952H443.327a26.034,26.034,0,0,1-6.795-.868q-5.673-1.833-5.672-6.928v-.966l-.5-.193a11.371,11.371,0,0,0-1.236,4.245v.754q0,8.277,14.2,8.336h11.965a14.357,14.357,0,0,0,3.357-4.072,7.256,7.256,0,0,0,.521-1.168,3.814,3.814,0,0,0,.173-1.187,2.571,2.571,0,0,0-.6-1.467h1.391l.346-.346v-.029c.126-.034.245-.048.367-.087a12.864,12.864,0,0,1,3.9-1.293h.153q1.468,0,5.657,2.3h.326a18.284,18.284,0,0,0,1.448-3.744,1.655,1.655,0,0,0,.076-.52,1.453,1.453,0,0,0-.038-.348,11.446,11.446,0,0,0-1.777-1.216" transform="translate(-202.159 -48.259)"/>
      <path id="Path_28190" data-name="Path 28190" d="M545.619,101.2l.134-.713-.482-.271a7.8,7.8,0,0,0-1.95,4.574,3.676,3.676,0,0,0,1.987,3.281q2.163,10.44,2.163,13.642h-5.5a6,6,0,0,1-4.285-1.486,7.114,7.114,0,0,0,1.12-3.511V116.4a3.911,3.911,0,0,0-.155-.908,5.063,5.063,0,0,0-4.688-2.488h-.87a10.479,10.479,0,0,0-4.516,1.1q-.889,1.948-1.6,3.937l.173.174a7.491,7.491,0,0,1,1.467-.174q2.28,0,4.439,2.49a25.846,25.846,0,0,1-8.394,1.176h-1.641a3.555,3.555,0,0,1-3.433-1.737q-.947-1.736-1.324-6.734t-1.051-11.869h-.5l-2.025,3.531q.676,6.716.956,10.615a34.645,34.645,0,0,0,.762,5.751,6.15,6.15,0,0,0,2.528,3.59,7.011,7.011,0,0,0,3.785,1.2l.035.035h.889l.007-.008q7.245-.29,11.34-3.041c.039,0,.193.166.463.5q1.523,2.547,6.1,2.547h6.638a16.738,16.738,0,0,0,1.87-7.468,45.73,45.73,0,0,0-.926-8.085l.481.232.214-.059,1.89-3.8V106.6l-2.451-1.622q-3.645-2.1-3.646-3.782" transform="translate(-242.467 -47.21)"/>
      <path id="Path_28191" data-name="Path 28191" d="M594.349,102.475h-.673l-2.261,4.594q2.318,14.608,2.317,20.089h.675a21.084,21.084,0,0,0,2.064-6.292q0-4.283-2.123-18.39" transform="translate(-278.614 -48.276)"/>
      <path id="Path_28192" data-name="Path 28192" d="M736.778,198.194s8.117,8.84,8.386,9.161a44.706,44.706,0,0,1,7.8-8.266l-6.867-7.146,6.975-6.594s-7.213-9.276-7.851-11.361c-.012-.038-.051-.033-.054.006-.295,5.214-7.9,10.671-7.9,10.671l6.342,7.263Z" transform="translate(-347.094 -81.953)" fill="#024e28"/>
      <path id="Path_28193" data-name="Path 28193" d="M653.494,150.151s-3.6,11.45-3.739,11.842a44.79,44.79,0,0,1,11.056,2.619l2.756-9.52,9.2,2.744s4.427-10.884,5.914-12.479c.028-.03,0-.062-.032-.044-4.664,2.352-13.193-1.51-13.193-1.51l-3.119,9.125Z" transform="translate(-306.098 -67.745)" fill="#024e28"/>
      <path id="Path_28194" data-name="Path 28194" d="M661.449,54.575s-11.714,2.61-12.127,2.683a44.751,44.751,0,0,1,3.261,10.886l9.622-2.374,2.222,9.336s11.641-1.609,13.765-1.118c.04.008.055-.029.022-.05-4.369-2.863-5.289-12.181-5.289-12.181l-9.46,1.86Z" transform="translate(-305.894 -25.71)" fill="#024e28"/>
      <path id="Path_28195" data-name="Path 28195" d="M753.121,9.16S745,.32,744.735,0a44.71,44.71,0,0,1-7.8,8.266l6.868,7.146-6.974,6.594s7.213,9.277,7.85,11.362c.012.038.052.033.054-.006.295-5.214,7.9-10.671,7.9-10.671L746.3,15.427Z" transform="translate(-347.119 0)" fill="#024e28"/>
      <path id="Path_28196" data-name="Path 28196" d="M825.142,68.414s3.6-11.45,3.739-11.842a44.783,44.783,0,0,1-11.056-2.619l-2.756,9.52-9.2-2.744s-4.427,10.884-5.914,12.479c-.028.03,0,.062.032.044,4.664-2.352,13.194,1.51,13.194,1.51l3.119-9.125Z" transform="translate(-376.853 -25.417)" fill="#024e28"/>
      <path id="Path_28197" data-name="Path 28197" d="M817.211,164.237s11.714-2.61,12.127-2.683a44.746,44.746,0,0,1-3.261-10.886l-9.623,2.374-2.222-9.336s-11.64,1.609-13.764,1.118c-.04-.009-.055.029-.022.05,4.369,2.863,5.289,12.181,5.289,12.181l9.461-1.86Z" transform="translate(-377.079 -67.7)" fill="#024e28"/>
      <path id="Path_28198" data-name="Path 28198" d="M700.731,8.818h0q.714.22,1.218,2.326.659,2.026.035,2.355l-1.591-.748a2.956,2.956,0,0,0-2.69-.173q-2.2,1.15,1.13,9.786t2.458,8.892q-.941.494-3.909-2.5a15.239,15.239,0,0,0-7.891-4.762,2.743,2.743,0,0,1-.144.866q-.388.4-3.116.347t-3.372-.9q-2.662-3.942-.624-5.009,3.683-2.128,12.142,3.721a42.328,42.328,0,0,0,3.756,2.975q-1.56-4.126-2.806-8.413-2.485-7.795.263-9.035,2.041-1.068,5.141.273" transform="translate(-320.982 -3.803)" fill="#082f18"/>
      <path id="Path_28199" data-name="Path 28199" d="M638.031,96.568h0q.547-.508,2.625.109c1.388.293,2.075.675,2.055,1.148l-1.442,1a2.949,2.949,0,0,0-1.5,2.243q-.1,2.474,9.039,3.915t8.93,2.317q-.044,1.063-4.118,2.135a15.24,15.24,0,0,0-8.07,4.453,2.75,2.75,0,0,1,.676.559q.157.541-1.256,2.874t-2.465,2.469q-4.748.336-4.653-1.965,0-4.252,9.3-8.656a41.939,41.939,0,0,0,4.453-1.764q-4.352-.711-8.691-1.774-7.987-1.749-7.69-4.748.1-2.3,2.807-4.315" transform="translate(-299.248 -45.385)" fill="#082f18"/>
      <path id="Path_28200" data-name="Path 28200" d="M678.277,194.291h0c-.111-.485.357-1.222,1.406-2.219q1.423-1.582,2.02-1.2s.052.583.148,1.752a2.956,2.956,0,0,0,1.2,2.415q2.093,1.326,7.91-5.871t6.472-6.576q.9.57-.212,4.635a15.24,15.24,0,0,0-.177,9.214,2.762,2.762,0,0,1,.822-.306q.544.134,1.861,2.525t.9,3.37q-2.084,4.279-4.027,3.046-3.681-2.127-2.849-12.377a42.36,42.36,0,0,0,.7-4.741q-2.794,3.414-5.883,6.638-5.506,6.047-7.956,4.287-1.944-1.23-2.335-4.588" transform="translate(-319.527 -85.993)" fill="#082f18"/>
      <path id="Path_28201" data-name="Path 28201" d="M788.059,205.336h0q-.714-.217-1.218-2.326-.66-2.026-.035-2.354s.533.249,1.591.749a2.959,2.959,0,0,0,2.691.171q2.2-1.15-1.13-9.786T787.5,182.9q.94-.494,3.908,2.5a15.241,15.241,0,0,0,7.891,4.76,2.741,2.741,0,0,1,.144-.865q.388-.4,3.117-.349t3.371.9q2.662,3.942.624,5.01-3.683,2.126-12.142-3.722a42.41,42.41,0,0,0-3.756-2.972q1.559,4.123,2.806,8.413,2.485,7.793-.263,9.033-2.04,1.069-5.141-.273" transform="translate(-370.519 -86.13)" fill="#082f18"/>
      <path id="Path_28202" data-name="Path 28202" d="M847.588,119.6h0q-.547.511-2.625-.109-2.083-.438-2.054-1.147l1.442-1a2.955,2.955,0,0,0,1.5-2.243q.1-2.476-9.039-3.917t-8.929-2.317q.043-1.06,4.117-2.135a15.229,15.229,0,0,0,8.069-4.453,2.72,2.72,0,0,1-.675-.559q-.158-.539,1.255-2.871t2.466-2.472q4.747-.335,4.653,1.966,0,4.254-9.3,8.655a41.808,41.808,0,0,0-4.453,1.767q4.352.707,8.691,1.772,7.988,1.749,7.69,4.748-.094,2.3-2.806,4.315" transform="translate(-390.008 -45.383)" fill="#082f18"/>
      <path id="Path_28203" data-name="Path 28203" d="M808.951,22.983h0q.167.728-1.406,2.218-1.423,1.586-2.02,1.207s-.052-.585-.149-1.751a2.95,2.95,0,0,0-1.2-2.415q-2.093-1.326-7.91,5.87T789.8,34.687q-.9-.567.212-4.634a15.25,15.25,0,0,0,.177-9.216,2.762,2.762,0,0,1-.822.308q-.543-.137-1.861-2.527t-.9-3.37q2.084-4.275,4.027-3.046,3.681,2.128,2.849,12.377a42.58,42.58,0,0,0-.7,4.742q2.794-3.414,5.883-6.638,5.507-6.044,7.956-4.287,1.944,1.231,2.335,4.588" transform="translate(-370.519 -5.619)" fill="#082f18"/>
      <path id="Path_28204" data-name="Path 28204" d="M756.518,106.985a15.306,15.306,0,0,0-2.958-1.278,17.61,17.61,0,0,0-8.137-.6,19.672,19.672,0,0,0-3.521.908c-.117.042-.233.081-.352.125a19.419,19.419,0,0,0-1.865.829q-.8.405-1.591.882a38.191,38.191,0,0,0-3.545,2.433c-1.119-6.779-.543-16.959-.559-16.958.2-.611.672-.7.875-1.346a1.479,1.479,0,0,0-.15-1.1c2.25.848,3.6,2.943,3.693,6.784,1.683-2.922,1.564-5.848-1.479-8.291,2.427.63,4.467,1.851,4.895,6.987,1.768-4.781-.391-8.84-4.429-9.747,3.57.266,6.029,2.334,7.015,6.788.781-3.835-.38-8.468-6.663-9.453,2.555-.479,4.839-.081,6.643,1.879-1.426-2.615-3.359-4.589-7.3-4.02.388-.772,1.736-1.331,4.1-1.665-2.048-.643-4.046-.856-5.852.6a4.576,4.576,0,0,1,2.168-2.65,4.587,4.587,0,0,0-3.936,2.3,5.747,5.747,0,0,0-.772-3.219,3.781,3.781,0,0,0-.59,1.419,10.406,10.406,0,0,0-.183,1.8,4.586,4.586,0,0,0-3.936-2.3,4.581,4.581,0,0,1,2.167,2.65c-1.806-1.46-3.805-1.246-5.852-.6,2.367.334,3.715.893,4.1,1.665-3.946-.57-5.878,1.4-7.3,4.02,1.805-1.961,4.09-2.358,6.644-1.879-6.282.985-7.444,5.619-6.662,9.453.987-4.455,3.445-6.523,7.016-6.788-4.039.907-6.2,4.965-4.429,9.747.427-5.136,2.467-6.356,4.894-6.987-3.043,2.442-3.163,5.368-1.48,8.291.093-3.84,1.443-5.935,3.694-6.784a1.468,1.468,0,0,0-.149,1.1c.2.653.681.736.878,1.357-.012,0,.541,10.263-.562,16.948a28.793,28.793,0,0,0-7-4.144c-.291-.109-.578-.208-.861-.3a18.513,18.513,0,0,0-6.615-.94,17.107,17.107,0,0,0-6.829,1.727c-.265.132-.49.254-.664.355a.066.066,0,0,0,.058.119c.2-.065.406-.12.606-.178a18.882,18.882,0,0,1,6.829-.67,20.37,20.37,0,0,1,6.615,1.779,35.033,35.033,0,0,1,7.874,5.126c-3.337,2.907-6.16,5.738-7.874,6.73-.087.049-.172.1-.251.139a1.843,1.843,0,0,0-3.283.648,1.778,1.778,0,0,0,.358,1.589,2.646,2.646,0,0,0,3.177.463c2.309-.971,5.185-4.028,8.716-7.258.294-.27.591-.541.9-.811.3.268.6.538.892.807,1.6,1.462,3.065,2.891,4.4,4.105.552.5,1.082.964,1.591,1.38a13.912,13.912,0,0,0,2.217,1.536c1.351.712,2.519.8,3.521-.077a2.005,2.005,0,0,0,.163-.145,2.058,2.058,0,0,0,.36-1.589,1.854,1.854,0,0,0-1.381-1.364,1.841,1.841,0,0,0-1.9.716,6.793,6.793,0,0,1-.762-.464,26.1,26.1,0,0,1-2.217-1.788c-.5-.438-1.031-.917-1.591-1.424-1.089-.99-2.283-2.085-3.555-3.192a43.7,43.7,0,0,1,3.555-2.688c.52-.351,1.049-.689,1.591-1.013q1.078-.641,2.217-1.187a22.593,22.593,0,0,1,3.521-1.347,18.6,18.6,0,0,1,8.137-.5,20.416,20.416,0,0,1,2.9.682.067.067,0,0,0,.058-.119" transform="translate(-334.029 -36.359)" fill="#024e28"/>
    </g>
  </g>
</svg>
