<svg xmlns="http://www.w3.org/2000/svg" xmlns:xlink="http://www.w3.org/1999/xlink" width="1130.153" height="490.723" viewBox="0 0 1130.153 490.723">
  <defs>
    <filter id="Path_27462" x="0" y="0" width="1130.153" height="490.723" filterUnits="userSpaceOnUse">
      <feOffset dy="28" input="SourceAlpha"/>
      <feGaussianBlur stdDeviation="26.5" result="blur"/>
      <feFlood flood-opacity="0.161"/>
      <feComposite operator="in" in2="blur"/>
      <feComposite in="SourceGraphic"/>
    </filter>
  </defs>
  <g id="Component_34_1" data-name="Component 34 – 1" transform="translate(79.5 51.5)">
    <g transform="matrix(1, 0, 0, 1, -79.5, -51.5)" filter="url(#Path_27462)">
      <path id="Path_27462-2" data-name="Path 27462" d="M876.086-120.253a31.57,31.57,0,0,0-26.739,8.438A46.484,46.484,0,0,0,833.7-127.6h0v0q-1.722-1.052-3.54-1.946c-.169-.083-.341-.161-.51-.243-1.081-.514-2.173-1-3.3-1.432-.522-.2-1.062-.363-1.594-.545-.852-.286-1.694-.59-2.571-.826a42.58,42.58,0,0,0-4.572-1c-21.014-3.319-40.8,8.925-48.677,28.416a39.7,39.7,0,0,0-24.362-14,39.028,39.028,0,0,0-31.6,9.1,106.265,106.265,0,0,0-2.6-40.018q-1.241-4.754-2.907-9.339-.83-2.289-1.765-4.53c-13.058-31.366-40.875-55.25-75.766-60.763a95.562,95.562,0,0,0-17.345-1.146q-4.28.109-8.486.6a94.471,94.471,0,0,0-16.412,3.4,98.816,98.816,0,0,0-47.735,32.1A103.076,103.076,0,0,0,522.975-160a40.084,40.084,0,0,0-4.065-2.813,39.147,39.147,0,0,0-14.161-5.17,39.255,39.255,0,0,0-34.9,12.244,53.871,53.871,0,0,0-29.187-39.272,63.575,63.575,0,0,0,.48-21.251c-4.9-33.544-33.684-52.13-55.443-49.851-5.961.624-30.332,6.962-32.459,31.408-44.675-37.05-82.4,4.343-87,35.873a80.469,80.469,0,0,0-.78,8.438,30.651,30.651,0,0,0-14.621-1.256,31.339,31.339,0,0,0-14.543,6.368c-12.947-35.188-48.07-57.526-85.349-51.636a76.678,76.678,0,0,0-32.2,13.047,79.487,79.487,0,0,0-8.85,7.23q-2.77,2.618-5.285,5.49t-4.756,5.971q-2.241,3.1-4.194,6.409A84.278,84.278,0,0,0,84.7-145.44a31.482,31.482,0,0,0-18.269-7.57,30.884,30.884,0,0,0-6.943.309,31.118,31.118,0,0,0-10.858,3.874,32.52,32.52,0,0,0-8.581,7.294A37.361,37.361,0,0,0,24.559-159.7a34.971,34.971,0,0,0-17.126-4.935,35.169,35.169,0,0,0-6.225.425,33.874,33.874,0,0,0-3.647.794c-.7.188-1.376.432-2.057.661-.423.145-.853.273-1.267.434-.9.341-1.771.731-2.634,1.141-.136.065-.272.127-.408.195a36.818,36.818,0,0,0-15.309,14.149,25.193,25.193,0,0,0-21.336-6.733c-14.145,2.235-23.87,15.973-21.722,30.685s15.356,24.828,29.5,22.593a25.37,25.37,0,0,0,13.529-6.7C-16.713-94.58-2.675-87.284,12.1-89.618c.346-.056.675-.151,1.017-.216l.006.054C18.367-53.882,50.6-29.2,85.109-34.653a62.309,62.309,0,0,0,37.74-21.312c9.42,21.229,31.473,34.363,54.812,30.676a50.892,50.892,0,0,0,29.116-15.475c-1.52,35.418,22.867,67.048,57.324,72.49,23.988,3.79,46.934-6.053,61.589-23.948,6.813,28.859,29.72,52.035,59.721,56.775C422,70.332,456.339,46.664,466.229,10.6a55.1,55.1,0,0,0,34.443,20.247c19.993,3.159,39.07-5.174,51.175-20.2a64.616,64.616,0,0,0,44.618,29.863c29.251,4.621,56.889-11.839,68.694-38.445a78.091,78.091,0,0,0,47.3,26.712c43.256,6.833,83.646-24.1,90.217-69.09,0-.023,0-.043.007-.068.429.08.842.2,1.276.272,18.518,2.924,36.111-6.222,45.421-21.773a31.792,31.792,0,0,0,16.956,8.4c17.727,2.8,34.281-9.876,36.974-28.316S893.814-117.453,876.086-120.253Z" transform="translate(146.97 317.8)" fill="#fff" opacity="0.57"/>
    </g>
    <text id="Placeholder_Text" data-name="Placeholder Text" transform="translate(473.577 181.623)" fill="#921616" font-size="81" font-family="Hayah"><tspan x="-329" y="0">سؤال اليوم هو نموذج نموذج</tspan></text>
  </g>
</svg>
